<?xml version="1.0" standalone="no"?>
<!DOCTYPE svg PUBLIC "-//W3C//DTD SVG 1.1//EN" "http://www.w3.org/Graphics/SVG/1.1/DTD/svg11.dtd" >
<svg xmlns="http://www.w3.org/2000/svg">
<metadata>
This is a custom SVG webfont generated by Font Squirrel.
</metadata>
<defs>
<font id="webfontf4aQb1SL" horiz-adv-x="911" >
<font-face units-per-em="2048" ascent="1638" descent="-410" />
<missing-glyph horiz-adv-x="1224" />
<glyph unicode=" "  horiz-adv-x="1224" />
<glyph unicode="&#x09;" horiz-adv-x="1224" />
<glyph unicode="&#xa0;" horiz-adv-x="1224" />
<glyph unicode="!" horiz-adv-x="536" d="M150 145.5q0 67.5 49 116.5t116 49q70 0 119 -49t49 -116.5t-51 -118.5q-49 -49 -119 -50q-71 0 -116 50q-47 51 -47 118.5zM162 1563l303 43l-55 -1123h-191z" />
<glyph unicode="&#x22;" horiz-adv-x="800" d="M104 1364v266h228v-266l-49 -313h-123zM473 1364v266h227v-266l-51 -313h-121z" />
<glyph unicode="#" horiz-adv-x="1417" d="M23 446v166h221l84 404h-305v166h337l97 475h166l-97 -475h351l98 475h166l-97 -475h191v-166h-225l-82 -404h307v-166h-340l-96 -473h-168l94 473h-348l-94 -473h-168l96 473h-188zM412 612h348l84 404h-350z" />
<glyph unicode="$" horiz-adv-x="1280" d="M82 453l201 36q49 -330 284 -354v637q-129 23 -254 94q-197 111 -196 363q0 215 149 346q98 86 301 108v97h117v-97q385 -37 436 -401l-207 -31q-33 223 -229 265v-578q160 -41 201 -59q180 -76 241 -240q33 -88 33 -174q0 -211 -133 -350q-131 -137 -342 -148v-200h-117 v198q-150 18 -233 62q-102 51 -172 161q-68 108 -80 265zM315 1245q0 -205 252 -282v555q-115 -18 -182 -91q-70 -71 -70 -182zM684 135q123 16 195 103q76 92 75 213q0 125 -75 196q-53 49 -195 96v-608z" />
<glyph unicode="%" horiz-adv-x="1955" d="M131 1237q0 178 82 291q92 129 260 129q176 0 272 -133q82 -113 82 -297q0 -178 -84 -299q-94 -131 -268 -131q-172 0 -266 137q-78 121 -78 303zM307 1217q0 -283 172 -283q176 0 176 299q0 285 -176 285q-172 0 -172 -301zM479 -59l893 1716h162l-887 -1716h-168z M1186 383q0 176 82 289q92 129 262 129q178 0 270 -131q84 -115 84 -299q0 -178 -86 -297q-96 -133 -268 -133q-174 0 -266 139q-78 119 -78 303zM1360 362q0 -285 174 -284.5t174 299.5q0 287 -174 286.5t-174 -301.5z" />
<glyph unicode="&#x26;" horiz-adv-x="835" d="M0 -27h160l473 1684h-162z" />
<glyph unicode="'" horiz-adv-x="782" d="M98 1417l463 301l115 -211l-500 -233z" />
<glyph unicode="(" horiz-adv-x="634" d="M49 -680v2605h430v-223h-207v-2167h207v-215h-430z" />
<glyph unicode=")" horiz-adv-x="634" d="M137 -473h207v2171h-207v223h430v-2613h-430v219z" />
<glyph unicode="*" horiz-adv-x="937" d="M70 1329l53 160q175 -65 258 -111q-25 231 -25 279h162q-2 -90 -26 -277q123 61 264 109l49 -160q-141 -46 -277 -61q68 -58 191 -209l-131 -96q-80 109 -154 239q-88 -166 -145 -239l-129 96q126 160 184 209q-147 28 -274 61z" />
<glyph unicode="+" horiz-adv-x="1277" d="M127 711v186h442v442h189v-442h444v-186h-444v-447h-189v447h-442z" />
<glyph unicode="," horiz-adv-x="829" d="M98 -213q68 22 111 68q43 47 43 92q0 28 -49 49q-98 41 -99 151q0 78 54 132q51 51 127 51q90 0 147 -70t57 -180q0 -137 -83 -250q-84 -111 -218 -158z" />
<glyph unicode="-" horiz-adv-x="702" d="M121 504v231h497v-231h-497z" />
<glyph unicode="." horiz-adv-x="823" d="M125 152q0 78 51 129t125 51q76 0 127 -51q55 -55 55 -129t-53 -132q-53 -55 -125 -55q-76 0 -127 55q-53 58 -53 132z" />
<glyph unicode="/" horiz-adv-x="798" d="M0 1190l285 289l284 -289l-284 -281z" />
<glyph unicode="0" horiz-adv-x="1263" d="M96 803q0 544 234 737q121 96 297 96q258 0 393 -204q135 -215 135 -629q0 -541 -233 -735q-115 -94 -295 -95q-531 1 -531 830zM301 803q0 -270 43 -414q74 -252 283 -252q324 0 323 666q0 274 -43 418q-74 250 -284 249q-205 0 -279 -249q-43 -148 -43 -418z" />
<glyph unicode="1" horiz-adv-x="804" d="M248 1032v195q350 164 471 409h129v-1636h-199v1274q-161 -152 -401 -242z" />
<glyph unicode="2" horiz-adv-x="1284" d="M68 0q-4 168 155 354q94 111 262 248q197 158 285 256q168 180 168 330q0 127 -90 204.5t-217 77.5q-150 0 -234 -90t-86 -237l-205 22q23 231 158 351q139 121 371 120q215 0 356 -116q152 -127 152 -336q0 -195 -172 -391q-90 -102 -309 -287l-170 -144 q-94 -88 -146 -172h799v-190h-1077z" />
<glyph unicode="3" horiz-adv-x="1271" d="M96 430l199 27q65 -319 319 -320q145 0 239.5 96.5t94.5 241.5q0 139 -90 229.5t-227 90.5q-55 0 -142 -23l23 174q14 -2 33 -2q135 0 229 66q102 74 103 207q0 113 -76 184q-72 70 -191 69q-252 0 -295 -290l-198 32q37 197 164 312q125 113 325 112q123 0 236 -53 q121 -59 180 -158q61 -102 61 -213q0 -227 -225 -329q145 -33 225 -142q80 -106 80 -262q0 -219 -162 -364q-158 -143 -387 -144q-211 0 -354 125q-141 125 -164 334z" />
<glyph unicode="4" horiz-adv-x="1331" d="M29 389v184l743 1057h164v-1057h219v-184h-219v-389h-201v389h-706zM225 573h510v736z" />
<glyph unicode="5" horiz-adv-x="1282" d="M96 428l209 16q20 -135 96 -219q82 -88 215 -88q163 0 258 123q88 109 88.5 274.5t-92.5 266.5q-92 102 -256 102q-193 0 -295 -158l-190 25l158 836h811v-191h-649l-89 -436q150 102 308 102q223 0 364.5 -153.5t141.5 -374.5t-130 -383q-156 -197 -428 -197 q-211 0 -356 121q-141 119 -164 334z" />
<glyph unicode="6" horiz-adv-x="1277" d="M86 762q0 874 584 874q190 0 315 -108q123 -106 148 -297l-199 -17q-29 121 -76 172q-80 84 -201 84q-211 0 -315 -253q-53 -129 -57 -377q145 217 395 217q215 0 350 -158q131 -154 131 -371q0 -152 -61 -276q-63 -135 -185 -209q-115 -70 -264 -70q-311 0 -452 252 q-113 201 -113 537zM315 528q0 -236 168 -342q80 -49 166 -49q145 0 232 121q76 111 75 258q0 156 -79 256q-84 109 -238 109q-143 0 -233.5 -103t-90.5 -250z" />
<glyph unicode="7" horiz-adv-x="1259" d="M106 1415v195h1057v-158q-176 -188 -327 -471q-145 -274 -220 -532q-61 -219 -75 -449h-207q2 215 90 510q78 260 194 479q141 262 287 426h-799z" />
<glyph unicode="8" horiz-adv-x="1275" d="M94 471q0 332 309 412q-246 92 -245 331q0 193 141 310q131 113 327.5 112.5t329.5 -114.5q143 -119 144 -312q0 -236 -242 -327q307 -100 307 -416q0 -223 -155 -361q-152 -133 -381.5 -133t-380.5 131q-154 142 -154 367zM299 471q0 -203 160 -291q80 -43 172 -43 q143 0 235 92q94 94 94.5 235.5t-96.5 237.5q-94 94 -241 95q-139 0 -231.5 -92.5t-92.5 -233.5zM362 1223q0 -120 74 -191q76 -72 195 -71q111 0 186 69q78 72 78 180q0 113 -78 187q-76 74 -188 73q-111 0 -189 -69t-78 -178z" />
<glyph unicode="9" horiz-adv-x="1273" d="M96 1085q0 236 135 390q141 162 377 161q166 0 293 -88q133 -92 197 -241q68 -160 67 -459q0 -584 -268 -780q-133 -94 -315 -95q-194 0 -314 105q-123 106 -143 299l190 16q49 -256 273 -256q176 0 274 154q104 166 105 434q0 23 -2 41q-57 -94 -166 -156 q-102 -57 -224 -57q-217 0 -352 160q-127 151 -127 372zM301 1079q0 -147 86 -245q92 -104 240 -105q154 0 237 109q80 100 80 256q0 152 -80 260q-86 117 -233 116q-152 0 -244 -122q-86 -115 -86 -269z" />
<glyph unicode=":" horiz-adv-x="679" d="M168 143q0 78 51 129q53 53 127 53.5t123 -53.5q49 -51 49 -129q0 -74 -51 -125t-125 -51t-123 51q-51 55 -51 125zM170 842q0 78 51 129q53 53 125 53q70 0 123 -53q51 -51 51 -125t-51 -125t-125 -51q-72 0 -123 51t-51 121z" />
<glyph unicode=";" horiz-adv-x="724" d="M150 -221q68 23 112 69q43 45 43 91q0 25 -39 45q-53 29 -69 49q-39 39 -39 108q0 80 51 131q53 53 127 54q90 0 149.5 -72t59.5 -180q0 -139 -86 -250t-217 -156zM160 844q0 76 51 127q53 53 121 53q74 0 127 -53t53 -127t-51 -125t-125 -51t-125 51t-51 125z" />
<glyph unicode="&#x3c;" horiz-adv-x="1191" d="M-203 680l707 655l280 -161l-530 -494l530 -496l-280 -157z" />
<glyph unicode="=" horiz-adv-x="1277" d="M127 465v186h1075v-186h-1075zM127 958v187h1075v-187h-1075z" />
<glyph unicode="&#x3e;" horiz-adv-x="1191" d="M82 184l526 496l-526 494l283 161l704 -655l-704 -653z" />
<glyph unicode="?" horiz-adv-x="1030" d="M88 1440q174 158 428 157q168 0 283 -96q117 -100 116 -266q0 -203 -221 -350q-154 -101 -153 -289q0 -23 8 -88h-215q-18 74 -19 141q0 195 179 336l114 88q113 57 144 172q31 113 -78 205q-106 92 -238 68q-129 -25 -237 -240zM299 145q0 72 47 119q49 49 123 49 q68 0 119 -49t51 -119q0 -72 -51 -123t-121 -51q-72 0 -121 52q-47 48 -47 122z" />
<glyph unicode="@" horiz-adv-x="260" d="M0 -797h137l336 797h-113z" />
<glyph unicode="A" horiz-adv-x="909" d="M0 0q899 0 909 1139h-112v-31q0 -993 -797 -993v-115z" />
<glyph unicode="B" horiz-adv-x="835" d="M-115 0v115h115l160 112v-653q158 174 569 541v-115q-227 -248 -387 -446q-170 -211 -219 -390l-123 -73v909h-115z" />
<glyph unicode="C" horiz-adv-x="1658" d="M45 0v1051l160 82l2 -1135l-2 582q152 332 338 450q172 110 337 110q17 0 33 -1q180 -12 361 -164q201 -170 201 -418q0 -223 -168 -385q-178 -172 -459 -172q-37 0 -57 2l-80 129q93 -19 171 -19q205 0 312 134q100 170 100 311q0 160 -110 309q-111 152 -230 172 q-38 7 -76 7q-86 0 -176 -33q-131 -49 -317 -324q-160 -340 -180 -686l-121 -2h-39z" />
<glyph unicode="D" horiz-adv-x="1611" d="M0 0q37 446 233.5 745t503.5 385q38 7 86 8q40 0 82 -5q211 -12 389 -158q162 -170 162 -420q0 -221 -127 -385q-122 -171 -446 -171q-42 0 -86 3l-82 127q103 -20 185 -20q190 0 265 108q106 152 119 246q6 46 6 92t-6 92q-12 94 -104 232t-215 159q-31 5 -65 6 q-96 0 -208 -45q-143 -57 -317 -243q-248 -401 -260 -756h-115z" />
<glyph unicode="E" horiz-adv-x="1013" d="M0 1139h102q4 -809 922 -1024v-115q-1024 228 -1024 1139zM123 723q0 100 90 197q92 98 215 110q129 0 223 -88q90 -85 91 -207q0 -8 -1 -16q0 -102 -77 -201q-82 -104 -236 -106q-100 0 -196.5 77.5t-108.5 233.5zM252 725q0 -72 53 -125t127 -53q80 0 133 51t53 125 q0 78 -53 129t-133 51q-76 0 -127 -51q-53 -53 -53 -127z" />
<glyph unicode="F" horiz-adv-x="1013" d="M2 0q1024 227 1024 1139h-117v-16q0 -795 -907 -1008v-115zM285 719q0 -102 77 -201q82 -104 236 -106q100 0 196.5 77.5t108.5 233.5q0 100 -90 197q-92 98 -215 110q-129 0 -223 -88q-90 -85 -91 -207q1 -8 1 -16zM408 723q0 76 55 129q53 51 131 51q76 0 127 -51 q53 -53 53 -127q0 -72 -53 -125t-127 -53q-78 0 -131 51q-55 53 -55 125z" />
<glyph unicode="G" horiz-adv-x="997" d="M-90 4q408 68 504 154q92 -70 508 -154v113q-309 57 -394 121q163 160 191 356q7 52 7 102q0 142 -58 273q-75 167 -250 166h-25q-195 -12 -256 -185q-39 -109 -39 -226q0 -66 13 -134q33 -182 180 -346q-63 -88 -381 -125v-115zM242 760q12 170 88 250q37 38 73 38 l80 -47q76 -88 95 -253q3 -26 2 -54q0 -143 -80 -299q-47 -92 -94 -92t-91 94q-75 164 -75 319q0 22 2 44z" />
<glyph unicode="H" horiz-adv-x="681" d="M16 -469q-16 49 -15 101q0 89 46 192q53 117 512 999l176 310l-2 -244l-504 -1014q-82 -161 -82 -274q0 -18 3 -35q16 -121 210 -195q148 -56 350 -56q60 0 124 5l127 -115q-76 -1 -144 0q-298 0 -389 9q-96 10 -231 98q-140 92 -181 219z" />
<glyph unicode="I" horiz-adv-x="634" d="M2 0l440 1139v-1139h-137v518l-190 -518h-113z" />
<glyph unicode="J" horiz-adv-x="1069" d="M0 1141l459 2q199 -20 346 -115q143 -92 156 -244q2 -23 1 -46q0 -130 -57 -265q-68 -160 -477 -911q78 96 363 323q283 227 403 230v-115q-621 -326 -967 -811l-14 231l510 1016q95 193 95 331q0 12 -1 24q-10 147 -199 190q-190 43 -518 43z" />
<glyph unicode="K" horiz-adv-x="778" d="M8 -342q20 176 363 1475l106 -191q-272 -981 -309 -1188q-14 -80 -14 -145q0 -92 28 -158q49 -113 170 -131q24 -4 50 -4q101 0 210 61q137 76 310 625h114q-242 -723 -448 -772q-96 -23 -176 -23q-93 0 -164 31q-135 59 -195 162q-49 83 -49 193q0 32 4 65z" />
<glyph unicode="L" horiz-adv-x="749" d="M65 -494q0 145 152 609h180q-113 -274 -157 -439q-35 -128 -36 -214q0 -24 3 -44q12 -86 94 -180q43 -50 110 -50q57 0 132 36q162 76 424 776h133q-268 -668 -387 -774q-117 -104 -256 -123q-47 -6 -86 -6q-81 0 -133 26q-82 41 -125 136q-48 104 -48 247z" />
<glyph unicode="M" horiz-adv-x="1015" d="M0 0h115q212 1040 398.5 1040t350.5 -1040h160q-246 1138 -502 1138t-522 -1138z" />
<glyph unicode="N" horiz-adv-x="931" d="M-90 0q580 289 557 406q-207 395 -207 872q0 223 45 340q86 330 287 330q209 0 301 -332q43 -121 43 -328q0 -487 -215 -887q-4 -113 522 -401h-285q-184 49 -364 268q-182 -217 -369 -268h-315zM428 1427q-8 -86 -8 -166q0 -387 182 -673q176 295 176 715q0 63 -4 129 q-22 123 -61 239q-39 115 -78 133q-16 8 -33 8q-26 0 -51 -18q-45 -31 -72 -135q-33 -126 -51 -232z" />
<glyph unicode="O" horiz-adv-x="1038" d="M0 569q55 344 205 457q152 115 307 115q205 0 338 -109q135 -111 166 -287q14 -82 14 -157q0 -86 -18 -166q-35 -152 -133 -275q-135 -145 -367 -145q-217 0 -348 125q-164 151 -164 442zM158 709q-19 -61 -19 -128q0 -89 33 -190q57 -176 217 -229q78 -26 150.5 -26 t140.5 26q133 51 182 229q28 103 29 193q0 63 -14 121q-35 139 -102.5 212.5t-158.5 90.5q-45 8 -88.5 7.5t-85.5 -7.5q-78 -14 -161 -88q-80 -72 -123 -211z" />
<glyph unicode="P" horiz-adv-x="1581" d="M0 1122q20 1 39 1q262 0 364 -158q66 -98 113 -349q40 -286 105 -374q66 -90 143 -111l84 -12l26 -121q-281 18 -411 211q-78 117 -129 373q-37 190 -76 317q-32 105 -222 105h-11zM688 131l129 -8q44 -5 84 -5q207 0 303 132q113 156 113 319q0 135 -103 310 q-111 131 -323 131q-80 0 -174 -19l59 119q61 14 82 14q287 0 473 -174q172 -163 172 -381q0 -248 -207 -419q-186 -150 -422 -152q-8 51 -186 133z" />
<glyph unicode="Q" horiz-adv-x="1028" d="M0 0q207 1139 1036 1139v-115q-733 -2 -921 -1024h-115zM299 664q0 102 76 196q78 96 235 109q100 0 197 -90q98 -92 111 -215q0 -127 -91 -224q-85 -90 -205 -90h-16q-104 0 -203 78q-102 80 -104 236zM432 659.5q0 -73.5 53 -131.5q51 -55 125 -55t127 55 q53 57 53.5 131t-53 127.5t-125.5 53.5q-74 0 -127 -53.5t-53 -127z" />
<glyph unicode="R" horiz-adv-x="1581" d="M0 2q20 -1 39 -1q262 0 364 159q66 98 113 348q40 286 105 375q63 86 143 108l84 15l26 120q-281 -18 -411 -211q-78 -117 -129 -374q-35 -184 -76 -316q-32 -105 -222 -104h-11zM688 991l129 10q44 5 84 5q207 0 303 -132q113 -156 113 -319q0 -135 -103 -309 q-113 -133 -326 -133q-79 0 -171 18l59 -117q61 -14 82 -14q289 0 473 172q172 164 172 383q0 248 -207 420q-186 150 -422 151q-10 -53 -186 -135z" />
<glyph unicode="S" horiz-adv-x="845" d="M309 326q-16 49 -16 101q0 91 47 194q53 117 512 999l174 309l-2 -243l-504 -1014q-80 -158 -80 -273q0 -19 2 -37q16 -121 209 -194q148 -56 349 -56q60 0 124 5l127 -115q-76 -1 -144 0q-298 0 -388 8q-96 10 -232 99q-137 90 -178 217z" />
<glyph unicode="T" horiz-adv-x="567" d="M291 1927q76 1 144 1q298 0 388 -9q96 -10 231.5 -98t168.5 -230q12 -49 11 -98q0 -96 -42 -195q-70 -162 -500 -989l-176 -309l-143 -2l649 1259q82 161 82 275q0 18 -2 35q-16 121 -211 194q-152 58 -355 58q-57 0 -118 -4z" />
<glyph unicode="U" horiz-adv-x="1019" d="M0 1139h160q189 -1040 376 -1040t373 1040h115q-246 -1138 -502 -1138t-522 1138z" />
<glyph unicode="V" horiz-adv-x="1157" d="M-125 1024q565 46 633 510q2 27 2 52q0 195 -107 296q-54 51 -111 52q-68 0 -140 -74q-127 -130 -127 -784v-32v-1044h137v1018l-2 538q52 253 121 253q21 0 43 -23q62 -66 62 -191q0 -69 -19 -155q-55 -242 -492 -301v-115zM45 0h115q189 926 376 926t373 -926h115 q-246 1025 -490.5 1025t-488.5 -1025z" />
<glyph unicode="W" horiz-adv-x="903" d="M0 0v1139h160v-1139h-160zM41 -4q8 1137 868 1137v-113q-768 0 -768 -1024h-100z" />
<glyph unicode="X" horiz-adv-x="1564" d="M0 1139h115q12 -354 260 -756q172 -184 317 -233q100 -33 193 -34q41 0 80 7q123 22 215 147t104 219q6 46 6 92.5t-6 92.5q-12 92 -113 241q-73 108 -254 109q-70 0 -157 -16l14 127q48 3 92 2q341 0 463 -170q127 -164 127 -385q0 -248 -162 -418q-180 -147 -389 -160 q-43 -5 -82 -5q-47 0 -86 7q-307 86 -504 385q-196 297 -233 748zM121 725q0 102 67.5 198.5t165.5 108.5q98 0 172 -88q72 -87 72 -213v-10q0 -98 -61 -201q-63 -104 -183 -106q-78 0 -151 78q-72 75 -82 233zM219 729q0 -74 41 -127t96 -53q61 0 104.5 51t43.5 125 q0 78 -43 129t-105 51q-57 0 -96 -51q-41 -53 -41 -125z" />
<glyph unicode="Y" horiz-adv-x="917" d="M-12 1028l10 111h10q284 0 379 -172q92 -166 164 -492q72 -319 358 -356l13 -119q-293 10 -375 158q-86 156 -164 489q-80 340 -395 381z" />
<glyph unicode="Z" horiz-adv-x="1064" d="M100 -422q111 367 387 457q251 81 675 81q44 0 89 -1v-111q-46 1 -90 1q-730 0 -862 -245q-111 -205 -111 -339q0 -37 9 -68q9 -32 31 -32q77 0 323 396q317 512 405 709q57 128 58 232q0 55 -17 102q-46 132 -227 203q-160 63 -461 62q-39 0 -82 -1l-71 115 q446 0 559 -11q96 -8 246 -104q143 -92 178 -244q10 -43 9 -90q0 -123 -65 -268q-92 -206 -405 -756q-294 -478 -482 -478q-7 0 -14 1q-122 12 -122 167q0 89 40 222z" />
<glyph unicode="[" horiz-adv-x="276" d="M0 455v467v921l160 90v-909l299 115z" />
<glyph unicode="\" horiz-adv-x="288" d="M0 569l455 570l-295 -115v324l-160 -209v-570zM0 1071l160 277q45 268 141 378q94 109 320 78l163 138q-389 2 -493 -64q-100 -63 -186.5 -204.5t-104.5 -602.5z" />
<glyph unicode="]" horiz-adv-x="698" d="M0 1139h115q122 680 195 678q6 0 12 -5q78 -61 102 -458l178 -41l-178 59l-2 -336v-467l455 570l-297 -115q0 543 -117 774q-121 238 -266 57q-148 -181 -197 -716z" />
<glyph unicode="^" horiz-adv-x="432" d="M227 1024q610 45 678 510q14 236 -102 348q-119 113 -264 -22q-141 -131 -138 -816v-475l455 570l-297 -115l-2 532q56 272 133 252q16 -4 33 -22q96 -102 41 -346q-55 -242 -492 -301z" />
<glyph unicode="_" horiz-adv-x="1341" d="M0 -170h1139v-115h-1139v115z" />
<glyph unicode="`" horiz-adv-x="806" d="M-342 -342q381 -344 342 -455h160l428 1024l391 922h-160l-391 -922l-322 -768z" />
<glyph unicode="a" d="M0 0h100q0 1024 809 1024v115q-899 0 -909 -1139z" />
<glyph unicode="b" horiz-adv-x="761" d="M131 -229q-27 -110 -27 -200q0 -185 115 -284q113 -97 230 -97q57 0 116 24q178 70 180 895v1030l-157 -115v-901q0 -806 -161 -806q-17 0 -36 9q-150 73 -150 249q0 55 15 120q61 274 752 307l20 107h-14q-801 0 -883 -338z" />
<glyph unicode="c" horiz-adv-x="892" d="M68 1114q567 272 958 815l-4 -266q-406 -803 -490 -991q-80 -181 -80 -301q0 -127 199 -203q148 -56 349 -56q60 0 124 5l127 -115q-76 -1 -144 0q-298 0 -388 8q-96 10 -231.5 98.5t-168.5 229.5q-12 49 -11 98q0 96 42 195q59 139 502 989q-115 -258 -625 -569z" />
<glyph unicode="d" horiz-adv-x="692" d="M0 -797v1884l160 76v-1566q163 178 540 540v-114l-358 -447q-170 -213 -219 -319z" />
<glyph unicode="e" d="M0 1139h102q0 -1024 813 -1024v-115q-905 0 -915 1139z" />
<glyph unicode="f" horiz-adv-x="948" d="M90 145q-44 89 -44 211q0 149 67 346q119 356 702 445l-41 -131q-371 -31 -500 -277q-87 -166 -87 -319q0 -73 20 -141q42 -148 130 -149q39 0 89 30q158 94 262 545q70 304 71 563q0 128 -18 245q-51 354 -248 355h-4l185 71q201 -137 229 -620q10 -63 10 -138 q0 -145 -39 -339q-57 -287 -145 -533q-86 -240 -313 -301q-54 -15 -101 -14q-150 -1 -225 151z" />
<glyph unicode="g" horiz-adv-x="1026" d="M8 647q88 -242 217 -387q106 -119 330 -336q199 -193 233 -342q6 -24 6 -46q0 -112 -139 -169q-90 -37 -168 -37q-67 0 -125 27q-129 59 -184 168q-23 45 -23 94q0 77 56 162q94 143 438 217l375 2l2 115q-59 3 -117 2q-196 0 -387 -31q-240 -39 -403 -227 q-106 -122 -107 -250q0 -66 29 -133q82 -195 303 -256q65 -18 131 -19q153 0 307 99q163 103 163 246q0 47 -17 100q-70 207 -430 542q-334 311 -334 514q0 16 2 31q29 213 188 271q41 15 90 14q147 0 375 -131l111 121q-289 122 -480 121q-145 0 -233 -70 q-207 -166 -209 -412z" />
<glyph unicode="h" horiz-adv-x="565" d="M0 0h160v1348q45 268 141 378q73 85 225 85q44 0 95 -7l163 138h-32q-361 0 -461.5 -63.5t-186.5 -205t-104 -602.5v-1071z" />
<glyph unicode="i" horiz-adv-x="587" d="M0 0v1061l160 78v-1139h-160z" />
<glyph unicode="j" horiz-adv-x="585" d="M227 1024q610 45 678 510q2 28 2 54q0 195 -104 294q-54 51 -114 52q-71 0 -150 -74q-137 -129 -138 -785v-31v-1044h158v1018l-2 538q52 253 123 253q21 0 43 -23q61 -65 61 -187q0 -70 -20 -159q-55 -244 -537 -301v-115z" />
<glyph unicode="k" horiz-adv-x="1077" d="M86 301q-58 145 -58 283q0 180 99 348q126 212 324 212q77 0 165 -32l-501 821l213 6l475 -1011q-180 97 -304 97q-172 0 -243 -185q-55 -143 -55 -265q0 -148 82 -264q130 -184 609 -184q69 0 144 4l17 -131q-76 -3 -147 -3q-697 0 -820 304z" />
<glyph unicode="l" horiz-adv-x="987" d="M2 4l197 143q299 27 458 109q41 21 41 60q0 113 -329 372h25q470 0 739 445q-137 -475 -437 -519q166 -170 167 -293q0 -109 -130 -182q-247 -137 -636 -137q-46 0 -95 2z" />
<glyph unicode="m" horiz-adv-x="1073" d="M0 0v115l242 -29q463 -43 606 -225q101 -129 101 -266q0 -60 -19 -121q-63 -203 -248 -254q-91 -26 -173 -26q-85 0 -161 28q-152 55 -227 422q-17 83 -17 168q0 292 201 620q260 424 787 604l14 -131q-399 -156 -588 -381q-195 -231 -237 -571q-13 -99 -13 -184 q0 -206 74 -324q88 -140 203 -140q21 0 43 5q141 31 203 180q18 43 17 87q0 108 -108 218q-153 156 -700 205z" />
<glyph unicode="n" horiz-adv-x="993" d="M-90 1024v115q408 -68 504 -154q92 70 508 154v-113q-309 -57 -394 -121q163 -160 191 -356q7 -52 7 -103q0 -144 -58 -274q-74 -165 -249 -165q-13 0 -26 1q-195 12 -256 185q-39 109 -39 224q0 65 13 134q33 186 180 348q-64 88 -381 125zM242 383q12 -174 88 -252 q37 -38 73 -38l80 46q76 88 95 256q3 26 2 53q0 143 -80 300q-47 91 -94 90q-47 0 -91 -95q-75 -164 -75 -317q0 -21 2 -43z" />
<glyph unicode="o" horiz-adv-x="907" d="M0 1024q797 -12 797 -972v-52h112v22q0 1116 -909 1117v-115z" />
<glyph unicode="p" horiz-adv-x="665" d="M0 1139h115q122 679 194 678q6 0 13 -5q78 -61 102 -481l-2 -295v-1036h135v1077q-20 571 -119 766q-50 99 -112 99q-59 0 -129 -87q-148 -181 -197 -716z" />
<glyph unicode="q" horiz-adv-x="1011" d="M0 1024q731 -2 903 -1024h125q-207 1139 -1028 1139v-115zM84 688q0 -131 88 -225q85 -90 208 -91q8 0 15 1q101 0 203 80t104 235q0 100 -75 195q-78 96 -236 108q-102 0 -196 -88q-99 -92 -111 -215zM211 682q0 76 53 129q51 51 125 51q76 0 127 -51q53 -53 53 -129 q0 -74 -53 -131q-53 -55 -125 -55q-76 0 -127 55q-53 57 -53 131z" />
<glyph unicode="r" horiz-adv-x="970" d="M66 1001l16 138q827 -15 827 -574q-2 -564 -676 -567l-165 -4v141q117 -21 215 -20q177 0 288 67q172 104 172 357q0 250 -153 385q-108 95 -323 95q-91 -1 -201 -18z" />
<glyph unicode="s" horiz-adv-x="970" d="M0 0l477 -2h8q338 0 471 272q24 50 24 117q0 24 -3 49q-12 98 -68 203q-51 98 -280 424l-170 -41q309 -446 334 -539q12 -46 12 -99.5t-12 -113.5q-25 -119 -363 -149l-307 -4zM205 1714q-2 -17 -3 -35q0 -49 17 -108q0 -150 240 -549l203 -18q-325 490 -325 683 q0 33 9 58q66 170 285 176q20 1 39 1q200 0 368 -58l232 80q-351 101 -587 100q-427 0 -478 -330z" />
<glyph unicode="t" horiz-adv-x="663" d="M0 0v1821l160 112v-1933h-160z" />
<glyph unicode="u" horiz-adv-x="903" d="M8 219q-8 38 -8 75q0 135 102 271q84 113 459 568l144 16q-591 -709 -591 -845q0 -9 4.5 -26.5t15.5 -45t39 -52.5t67 -37q78 -24 468 -23q91 0 201 1l13 -121q-516 0 -701 23q-176 22 -213 196z" />
<glyph unicode="v" horiz-adv-x="1026" d="M2 -8q-2 15 -1 34q0 101 40 326q49 274 174 525q127 254 346 262h18q208 0 324 -199q47 -81 48 -191q0 -169 -113 -403q-172 -355 -725 -355q-49 0 -101 3l140 121q53 -6 102 -6q345 0 487 284q101 202 101 347q0 88 -37 157q-69 127 -178 127q-46 0 -101 -23 q-180 -76 -288 -512q-83 -333 -83 -621q0 -83 7 -163q31 -352 241 -389q35 -6 67 -6q160 0 255 153q102 168 295 535h113q-137 -344 -271 -557q-135 -217 -399 -244q-36 -4 -69 -4q-208 0 -288 154q-94 182 -94 366q0 181 -10 279z" />
<glyph unicode="w" horiz-adv-x="823" d="M0 -797h160l852 1936h-158z" />
<glyph unicode="x" horiz-adv-x="1572" d="M0 0q37 446 233.5 745t503.5 385q38 7 86 8q40 0 82 -5q211 -12 389 -158q162 -170 162 -420q0 -221 -127 -385q-122 -171 -446 -171q-42 0 -86 3l-82 127q103 -20 185 -20q190 0 265 108q106 152 119 246q6 46 6 92t-6 92q-12 94 -104 232t-215 159q-31 5 -65 6 q-96 0 -208 -45q-143 -57 -317 -243q-248 -401 -260 -756h-115z" />
<glyph unicode="y" horiz-adv-x="1048" d="M-12 119l12 -119q272 10 354 158q86 156 164 489q80 340 397 381l-10 111h-10q-286 0 -381 -172t-166 -492q-69 -319 -360 -356z" />
<glyph unicode="z" horiz-adv-x="1005" d="M-158 1126q727 -10 789 -159q37 -90 36 -166q0 -56 -20 -107l-192 -485q-141 -356 -203 -533q-47 -134 -47 -207q0 -16 2 -28q12 -61 94 -123q33 -24 79 -24q62 0 150 44q150 76 437 662h114q-299 -557 -403 -662q-102 -102 -234 -133q-49 -12 -90 -11q-68 0 -116 32 q-76 49 -113 90q-37 40 -37 189q0 142 180 579q188 457 262 692q9 28 9 52q0 190 -527 190h-59z" />
<glyph unicode="{" horiz-adv-x="958" d="M63 498v182q170 2 211 166q14 76 19 262q0 29 8 246q25 242 207 291q41 12 135 12h66v-176h-37q-123 0 -160 -51q-33 -45 -33 -177q0 -305 -10 -366q-18 -119 -68 -182q-51 -66 -153 -115q150 -63 198 -205q33 -98 33 -297q0 -176 6 -256q12 -86 56 -115q41 -23 131 -22 h37v-172h-66q-111 0 -156 14q-150 55 -180 230q-6 55 -6 231q0 164 -14 264q-23 139 -84 191q-54 41 -140 45z" />
<glyph unicode="|" horiz-adv-x="204" d="M84 1683l2 -1683h160v1683h-162z" />
<glyph unicode="}" horiz-adv-x="606" d="M53 -305h33q123 0 162 55q31 41 31 174q0 289 8 355q33 229 223 311q-150 72 -199 205q-33 92 -32 295q0 162 -7 260q-12 84 -55 110q-35 20 -131 21h-33v176h62q106 0 157 -19q151 -52 179 -227q14 -102 12 -283q0 -180 22 -282q41 -164 211 -166v-182 q-170 -2 -211 -166q-20 -82 -20 -250q0 -141 -6 -258q-25 -238 -207 -291q-35 -10 -137 -10h-62v172z" />
<glyph unicode="~" horiz-adv-x="249" d="M-342 -342q381 -344 342 -455h115l358 797h-113l-254 -541z" />
<glyph unicode="&#xaa;" d="M0 0h100q0 1024 809 1024v115q-899 0 -909 -1139z" />
<glyph unicode="&#xab;" horiz-adv-x="1222" d="M115 559l508 -483l6 84l-264 399l264 404l-8 88zM618 559l515 -493v94l-267 399l267 404v94z" />
<glyph unicode="&#xac;" horiz-adv-x="1171" d="M145 469v211h967v-530h-244v319h-723z" />
<glyph unicode="&#xad;" horiz-adv-x="702" d="M121 504v231h497v-231h-497z" />
<glyph unicode="&#xb2;" horiz-adv-x="1284" d="M68 0q-4 168 155 354q94 111 262 248q197 158 285 256q168 180 168 330q0 127 -90 204.5t-217 77.5q-150 0 -234 -90t-86 -237l-205 22q23 231 158 351q139 121 371 120q215 0 356 -116q152 -127 152 -336q0 -195 -172 -391q-90 -102 -309 -287l-170 -144 q-94 -88 -146 -172h799v-190h-1077z" />
<glyph unicode="&#xb3;" horiz-adv-x="1271" d="M96 430l199 27q65 -319 319 -320q145 0 239.5 96.5t94.5 241.5q0 139 -90 229.5t-227 90.5q-55 0 -142 -23l23 174q14 -2 33 -2q135 0 229 66q102 74 103 207q0 113 -76 184q-72 70 -191 69q-252 0 -295 -290l-198 32q37 197 164 312q125 113 325 112q123 0 236 -53 q121 -59 180 -158q61 -102 61 -213q0 -227 -225 -329q145 -33 225 -142q80 -106 80 -262q0 -219 -162 -364q-158 -143 -387 -144q-211 0 -354 125q-141 125 -164 334z" />
<glyph unicode="&#xb9;" horiz-adv-x="804" d="M248 1032v195q350 164 471 409h129v-1636h-199v1274q-161 -152 -401 -242z" />
<glyph unicode="&#xba;" horiz-adv-x="907" d="M0 1024q797 -12 797 -972v-52h112v22q0 1116 -909 1117v-115z" />
<glyph unicode="&#xbb;" horiz-adv-x="1222" d="M115 66v94l266 399l-266 404v94l514 -498zM618 160l265 399l-265 404l9 88l506 -492l-510 -483z" />
<glyph unicode="&#xc0;" horiz-adv-x="909" d="M403 1718q381 -344 342 -455h160l428 1024l391 922h-160l-391 -922l-322 -768zM0 0q899 0 909 1139h-112v-31q0 -993 -797 -993v-115z" />
<glyph unicode="&#xc2;" horiz-adv-x="909" d="M336 1718q610 45 678 510q14 236 -102 348q-119 113 -264 -22q-141 -131 -138 -816v-475l455 570l-297 -115l-2 532q56 272 133 252q16 -4 33 -22q96 -102 41 -346q-55 -242 -492 -301zM0 0q899 0 909 1139h-112v-31q0 -993 -797 -993v-115z" />
<glyph unicode="&#xc3;" horiz-adv-x="909" d="M287 1718q381 -344 342 -455h115l358 797h-113l-254 -541zM0 0q899 0 909 1139h-112v-31q0 -993 -797 -993v-115z" />
<glyph unicode="&#xc8;" horiz-adv-x="1013" d="M-397 1718q381 -344 342 -455h160l428 1024l391 922h-160l-391 -922l-322 -768zM0 1139h102q4 -809 922 -1024v-115q-1024 228 -1024 1139zM123 723q0 100 90 197q92 98 215 110q129 0 223 -88q90 -85 91 -207q0 -8 -1 -16q0 -102 -77 -201q-82 -104 -236 -106 q-100 0 -196.5 77.5t-108.5 233.5zM252 725q0 -72 53 -125t127 -53q80 0 133 51t53 125q0 78 -53 129t-133 51q-76 0 -127 -51q-53 -53 -53 -127z" />
<glyph unicode="&#xca;" horiz-adv-x="1013" d="M-467 1718q610 45 678 510q14 236 -102 348q-119 113 -264 -22q-141 -131 -138 -816v-475l455 570l-297 -115l-2 532q56 272 133 252q16 -4 33 -22q96 -102 41 -346q-55 -242 -492 -301zM0 1139h102q4 -809 922 -1024v-115q-1024 228 -1024 1139zM123 723q0 100 90 197 q92 98 215 110q129 0 223 -88q90 -85 91 -207q0 -8 -1 -16q0 -102 -77 -201q-82 -104 -236 -106q-100 0 -196.5 77.5t-108.5 233.5zM252 725q0 -72 53 -125t127 -53q80 0 133 51t53 125q0 78 -53 129t-133 51q-76 0 -127 -51q-53 -53 -53 -127z" />
<glyph unicode="&#xcc;" horiz-adv-x="634" d="M-8 1718q381 -344 342 -455h160l428 1024l391 922h-160l-391 -922l-322 -768zM2 0l440 1139v-1139h-137v518l-190 -518h-113z" />
<glyph unicode="&#xce;" horiz-adv-x="634" d="M-76 1718q610 45 678 510q14 236 -102 348q-119 113 -264 -22q-141 -131 -138 -816v-475l455 570l-297 -115l-2 532q56 272 133 252q16 -4 33 -22q96 -102 41 -346q-55 -242 -492 -301zM2 0l440 1139v-1139h-137v518l-190 -518h-113z" />
<glyph unicode="&#xd1;" horiz-adv-x="931" d="M25 2525q381 -344 342 -455h115l358 797h-113l-254 -541zM-90 0q580 289 557 406q-207 395 -207 872q0 223 45 340q86 330 287 330q209 0 301 -332q43 -121 43 -328q0 -487 -215 -887q-4 -113 522 -401h-285q-184 49 -364 268q-182 -217 -369 -268h-315zM428 1427 q-8 -86 -8 -166q0 -387 182 -673q176 295 176 715q0 63 -4 129q-22 123 -61 239q-39 115 -78 133q-16 8 -33 8q-26 0 -51 -18q-45 -31 -72 -135q-33 -126 -51 -232z" />
<glyph unicode="&#xd2;" horiz-adv-x="1038" d="M64 1718q381 -344 342 -455h160l428 1024l391 922h-160l-391 -922l-322 -768zM0 569q55 344 205 457q152 115 307 115q205 0 338 -109q135 -111 166 -287q14 -82 14 -157q0 -86 -18 -166q-35 -152 -133 -275q-135 -145 -367 -145q-217 0 -348 125q-164 151 -164 442z M158 709q-19 -61 -19 -128q0 -89 33 -190q57 -176 217 -229q78 -26 150.5 -26t140.5 26q133 51 182 229q28 103 29 193q0 63 -14 121q-35 139 -102.5 212.5t-158.5 90.5q-45 8 -88.5 7.5t-85.5 -7.5q-78 -14 -161 -88q-80 -72 -123 -211z" />
<glyph unicode="&#xd4;" horiz-adv-x="1038" d="M-4 1718q610 45 678 510q14 236 -102 348q-119 113 -264 -22q-141 -131 -138 -816v-475l455 570l-297 -115l-2 532q56 272 133 252q16 -4 33 -22q96 -102 41 -346q-55 -242 -492 -301zM0 569q55 344 205 457q152 115 307 115q205 0 338 -109q135 -111 166 -287 q14 -82 14 -157q0 -86 -18 -166q-35 -152 -133 -275q-135 -145 -367 -145q-217 0 -348 125q-164 151 -164 442zM158 709q-19 -61 -19 -128q0 -89 33 -190q57 -176 217 -229q78 -26 150.5 -26t140.5 26q133 51 182 229q28 103 29 193q0 63 -14 121q-35 139 -102.5 212.5 t-158.5 90.5q-45 8 -88.5 7.5t-85.5 -7.5q-78 -14 -161 -88q-80 -72 -123 -211z" />
<glyph unicode="&#xd5;" horiz-adv-x="1038" d="M-55 1718q381 -344 342 -455h115l358 797h-113l-254 -541zM0 569q55 344 205 457q152 115 307 115q205 0 338 -109q135 -111 166 -287q14 -82 14 -157q0 -86 -18 -166q-35 -152 -133 -275q-135 -145 -367 -145q-217 0 -348 125q-164 151 -164 442zM158 709 q-19 -61 -19 -128q0 -89 33 -190q57 -176 217 -229q78 -26 150.5 -26t140.5 26q133 51 182 229q28 103 29 193q0 63 -14 121q-35 139 -102.5 212.5t-158.5 90.5q-45 8 -88.5 7.5t-85.5 -7.5q-78 -14 -161 -88q-80 -72 -123 -211z" />
<glyph unicode="&#xd9;" horiz-adv-x="1019" d="M64 1718q381 -344 342 -455h160l428 1024l391 922h-160l-391 -922l-322 -768zM0 1139h160q189 -1040 376 -1040t373 1040h115q-246 -1138 -502 -1138t-522 1138z" />
<glyph unicode="&#xdb;" horiz-adv-x="1019" d="M-4 1718q610 45 678 510q14 236 -102 348q-119 113 -264 -22q-141 -131 -138 -816v-475l455 570l-297 -115l-2 532q56 272 133 252q16 -4 33 -22q96 -102 41 -346q-55 -242 -492 -301zM0 1139h160q189 -1040 376 -1040t373 1040h115q-246 -1138 -502 -1138t-522 1138z " />
<glyph unicode="&#xe0;" d="M461 1714q381 -344 342 -455h160l428 1024l391 922h-160l-391 -922l-322 -768zM0 0h100q0 1024 809 1024v115q-899 0 -909 -1139z" />
<glyph unicode="&#xe2;" horiz-adv-x="204" />
<glyph unicode="&#xe3;" d="M342 1714q381 -344 342 -455h115l358 797h-113l-254 -541zM0 0h100q0 1024 809 1024v115q-899 0 -909 -1139z" />
<glyph unicode="&#xe6;" horiz-adv-x="942" d="M0 1133q137 -475 436 -519q-315 -322 -37 -475q276 -154 731 -135l-194 143q-299 27 -459 109q-159 81 287 432q-488 -12 -764 445z" />
<glyph unicode="&#xe7;" horiz-adv-x="1517" d="M-160 553q0 -221 152 -385q182 -170 473 -170q39 0 59 2l82 127q-346 -68 -500 117q-104 172 -104 309q0 160 115 311q113 150 239 172q117 20 275 21q141 0 293 -68q141 -63 170 -334q27 -264 -138 -659h174q195 840 -57 1014t-508 123q-53 10 -151 -3 q-209 -12 -389 -159q-167 -166 -185 -418zM508 1821l2 -1821l147 2l5 1935z" />
<glyph unicode="&#xe8;" horiz-adv-x="1064" d="M0 1933l1268 -1933h182l-1268 1933h-182zM401 0l1080 1024v115l-1080 -1024v-115z" />
<glyph unicode="&#xe9;" horiz-adv-x="1069" d="M-2 1139l1268 -1936h182l-1268 1936h-182zM0 115l12 -115l1080 1024v115z" />
<glyph unicode="&#xea;" d="M-467 1716q610 45 678 510q14 236 -102 348q-119 113 -264 -22q-141 -131 -138 -816v-475l455 570l-297 -115l-2 532q56 272 133 252q16 -4 33 -22q96 -102 41 -346q-55 -242 -492 -301zM0 1139h102q0 -1024 813 -1024v-115q-905 0 -915 1139z" />
<glyph unicode="&#xec;" horiz-adv-x="587" d="M-289 1714q381 -344 342 -455h160l428 1024l391 922h-160l-391 -922l-322 -768zM0 0v1061l160 78v-1139h-160z" />
<glyph unicode="&#xee;" horiz-adv-x="587" d="M-359 1716q610 45 678 510q14 236 -102 348q-119 113 -264 -22q-141 -131 -138 -816v-475l455 570l-297 -115l-2 532q56 272 133 252q16 -4 33 -22q96 -102 41 -346q-55 -242 -492 -301zM0 0v1061l160 78v-1139h-160z" />
<glyph unicode="&#xf1;" horiz-adv-x="993" d="M-164 1714q381 -344 342 -455h115l358 797h-113l-254 -541zM-90 1024v115q408 -68 504 -154q92 70 508 154v-113q-309 -57 -394 -121q163 -160 191 -356q7 -52 7 -103q0 -144 -58 -274q-74 -165 -249 -165q-13 0 -26 1q-195 12 -256 185q-39 109 -39 224q0 65 13 134 q33 186 180 348q-64 88 -381 125zM242 383q12 -174 88 -252q37 -38 73 -38l80 46q76 88 95 256q3 26 2 53q0 143 -80 300q-47 91 -94 90q-47 0 -91 -95q-75 -164 -75 -317q0 -21 2 -43z" />
<glyph unicode="&#xf2;" horiz-adv-x="907" d="M-448 1714q381 -344 342 -455h160l428 1024l391 922h-160l-391 -922l-322 -768zM0 1024q797 -12 797 -972v-52h112v22q0 1116 -909 1117v-115z" />
<glyph unicode="&#xf4;" horiz-adv-x="907" d="M-516 1716q610 45 678 510q14 236 -102 348q-119 113 -264 -22q-141 -131 -138 -816v-475l455 570l-297 -115l-2 532q56 272 133 252q16 -4 33 -22q96 -102 41 -346q-55 -242 -492 -301zM0 1024q797 -12 797 -972v-52h112v22q0 1116 -909 1117v-115z" />
<glyph unicode="&#xf5;" horiz-adv-x="907" d="M-567 1714q381 -344 342 -455h115l358 797h-113l-254 -541zM0 1024q797 -12 797 -972v-52h112v22q0 1116 -909 1117v-115z" />
<glyph unicode="&#xf9;" horiz-adv-x="903" d="M256 1726q381 -344 342 -455h160l428 1024l391 922h-160l-391 -922l-322 -768zM8 219q-8 38 -8 75q0 135 102 271q84 113 459 568l144 16q-591 -709 -591 -845q0 -9 4.5 -26.5t15.5 -45t39 -52.5t67 -37q78 -24 468 -23q91 0 201 1l13 -121q-516 0 -701 23 q-176 22 -213 196z" />
<glyph unicode="&#xfb;" horiz-adv-x="903" d="M188 1726q610 45 678 510q14 236 -102 348q-119 113 -264 -22q-141 -131 -138 -816v-475l455 570l-297 -115l-2 532q56 272 133 252q16 -4 33 -22q96 -102 41 -346q-55 -242 -492 -301zM8 219q-8 38 -8 75q0 135 102 271q84 113 459 568l144 16q-591 -709 -591 -845 q0 -9 4.5 -26.5t15.5 -45t39 -52.5t67 -37q78 -24 468 -23q91 0 201 1l13 -121q-516 0 -701 23q-176 22 -213 196z" />
<glyph unicode="&#x152;" horiz-adv-x="2054" d="M1040 1139h102q4 -809 922 -1024v-115q-1024 228 -1024 1139zM1163 723q0 100 90 197q92 98 215 110q129 0 223 -88q90 -85 91 -207q0 -8 -1 -16q0 -102 -77 -201q-82 -104 -236 -106q-100 0 -196.5 77.5t-108.5 233.5zM1292 725q0 -72 53 -125t127 -53q80 0 133 51 t53 125q0 78 -53 129t-133 51q-76 0 -127 -51q-53 -53 -53 -127zM0 569q55 344 205 457q152 115 307 115q205 0 338 -109q135 -111 166 -287q14 -82 14 -157q0 -86 -18 -166q-35 -152 -133 -275q-135 -145 -367 -145q-217 0 -348 125q-164 151 -164 442zM158 709 q-19 -61 -19 -128q0 -89 33 -190q57 -176 217 -229q78 -26 150.5 -26t140.5 26q133 51 182 229q28 103 29 193q0 63 -14 121q-35 139 -102.5 212.5t-158.5 90.5q-45 8 -88.5 7.5t-85.5 -7.5q-78 -14 -161 -88q-80 -72 -123 -211z" />
<glyph unicode="&#x153;" horiz-adv-x="1818" d="M907 1139h102q0 -1024 813 -1024v-115q-905 0 -915 1139zM0 1024q797 -12 797 -972v-52h112v22q0 1116 -909 1117v-115z" />
<glyph unicode="&#x2c6;" horiz-adv-x="432" d="M227 1024q610 45 678 510q14 236 -102 348q-119 113 -264 -22q-141 -131 -138 -816v-475l455 570l-297 -115l-2 532q56 272 133 252q16 -4 33 -22q96 -102 41 -346q-55 -242 -492 -301z" />
<glyph unicode="&#x2dc;" horiz-adv-x="1224" d="M-567 578q381 -344 342 -455h115l358 797h-113l-254 -541z" />
<glyph unicode="&#x2000;" horiz-adv-x="1607" />
<glyph unicode="&#x2001;" horiz-adv-x="3217" />
<glyph unicode="&#x2002;" horiz-adv-x="1607" />
<glyph unicode="&#x2003;" horiz-adv-x="3217" />
<glyph unicode="&#x2004;" horiz-adv-x="1071" />
<glyph unicode="&#x2005;" horiz-adv-x="802" />
<glyph unicode="&#x2006;" horiz-adv-x="534" />
<glyph unicode="&#x2007;" horiz-adv-x="534" />
<glyph unicode="&#x2008;" horiz-adv-x="399" />
<glyph unicode="&#x2009;" horiz-adv-x="641" />
<glyph unicode="&#x200a;" horiz-adv-x="176" />
<glyph unicode="&#x2010;" horiz-adv-x="702" d="M121 504v231h497v-231h-497z" />
<glyph unicode="&#x2011;" horiz-adv-x="702" d="M121 504v231h497v-231h-497z" />
<glyph unicode="&#x2013;" horiz-adv-x="1024" d="M205 512v205h614v-205h-614z" />
<glyph unicode="&#x2014;" horiz-adv-x="2048" d="M205 512v205h1638v-205h-1638z" />
<glyph unicode="&#x2018;" horiz-adv-x="806" d="M-342 -342q381 -344 342 -455h160l428 1024l391 922h-160l-391 -922l-322 -768z" />
<glyph unicode="&#x2019;" horiz-adv-x="782" d="M98 1417l463 301l115 -211l-500 -233z" />
<glyph unicode="&#x201c;" horiz-adv-x="800" d="M104 1364v266h228v-266l-49 -313h-123zM473 1364v266h227v-266l-51 -313h-121z" />
<glyph unicode="&#x201d;" horiz-adv-x="800" d="M104 1364v266h228v-266l-49 -313h-123zM473 1364v266h227v-266l-51 -313h-121z" />
<glyph unicode="&#x2026;" horiz-adv-x="1665" d="M90 152q0 78 51.5 129t124.5 51q78 0 129 -51q53 -53 54 -129q0 -74 -54 -132q-51 -55 -124.5 -55t-127.5 55q-53 58 -53 132zM643 151.5q0 77.5 51 129t125 51.5q76 0 127 -51q53 -53 53 -129q0 -74 -53 -132q-53 -55 -125 -55q-76 0 -127 55q-51 54 -51 131.5z M1194 152q0 76 53 129q51 51 125 51q76 0 127 -51q53 -53 53 -129q0 -74 -53 -132q-53 -55 -125 -55q-76 0 -127 55q-53 58 -53 132z" />
<glyph unicode="&#x202f;" horiz-adv-x="641" />
<glyph unicode="&#x2039;" horiz-adv-x="720" d="M123 559l516 506l-4 -102l-262 -404l262 -399l-2 -107z" />
<glyph unicode="&#x203a;" horiz-adv-x="720" d="M121 1065l4 -102l262 -404l-262 -399l2 -107l510 506z" />
<glyph unicode="&#x205f;" horiz-adv-x="802" />
<glyph unicode="&#x2122;" horiz-adv-x="1585" d="M569 0h115q212 1040 398.5 1040t350.5 -1040h160q-246 1138 -502 1138t-522 -1138zM291 1927q76 1 144 1q298 0 388 -9q96 -10 231.5 -98t168.5 -230q12 -49 11 -98q0 -96 -42 -195q-70 -162 -500 -989l-176 -309l-143 -2l649 1259q82 161 82 275q0 18 -2 35 q-16 121 -211 194q-152 58 -355 58q-57 0 -118 -4z" />
</font>
</defs>
</svg>
