<?xml version="1.0" standalone="no"?>
<!DOCTYPE svg PUBLIC "-//W3C//DTD SVG 1.1//EN" "http://www.w3.org/Graphics/SVG/1.1/DTD/svg11.dtd" >
<svg xmlns="http://www.w3.org/2000/svg">
<metadata>
This is a custom SVG webfont generated by Font Squirrel.
Copyright   : Copyright c Paul Tremblay 2007 All rights reserved
</metadata>
<defs>
<font id="webfontRMpstKbw" horiz-adv-x="960" >
<font-face units-per-em="2048" ascent="1638" descent="-410" />
<missing-glyph horiz-adv-x="749" />
<glyph unicode=" "  horiz-adv-x="749" />
<glyph unicode="&#x09;" horiz-adv-x="749" />
<glyph unicode="&#xa0;" horiz-adv-x="749" />
<glyph unicode="!" horiz-adv-x="555" d="M154 72q0 33 12 63q14 37 29 53q18 20 45 35q25 12 53 13q51 0 74 -29q25 -31 24 -84q0 -29 -10 -64q-8 -31 -29 -53q-16 -18 -44.5 -32.5t-53.5 -14.5q-49 0 -76 31q-24 27 -24 82zM176 1399q31 20 80 45q53 27 76 37l43 -27l-49 -1065q-12 -10 -33 -22q-4 -2 -41 -17 l-29 21z" />
<glyph unicode="&#x22;" horiz-adv-x="792" d="M190 1356q4 4 23 10l33 12q4 2 9 4t8 3t7 2.5l9 3.5q6 2 13 4t9 2l33 -17l-33 -469q-8 -4 -14 -6q-4 0 -10.5 -2t-8.5 -2q-12 -4 -18 -4h-21zM459 1356q4 4 22 10q20 8 33 12q8 2 16.5 6.5t16.5 6.5q6 2 14 4t10 2l31 -17l-31 -469q-8 -4 -14 -6q-4 0 -10 -2t-10 -2 q-12 -4 -21 -4h-18z" />
<glyph unicode="#" d="M86 500q8 29 14 45l7.5 21.5t9.5 23.5h172l73 256h-145l-24 24q10 37 14 48q4 12 16 43h172l82 290q18 12 45 25q6 2 20.5 8t22.5 8l31 -22l-90 -309h188l82 290q18 12 45 25l45 16l29 -22l-88 -309h149l25 -25q-2 -4 -5 -20.5t-7 -26.5q-9 -25 -19 -43h-178l-72 -256 h152l20 -27q-8 -29 -12 -45q-8 -29 -14 -43h-178l-88 -305q-20 -16 -41 -25l-52 -18l-24 20l92 328h-188l-88 -305q-16 -14 -41 -25l-50 -18l-24 20l92 328h-147zM399 590h189l74 256h-189z" />
<glyph unicode="$" d="M88 195q0 51 2 77q3 40 12 68l43 -4q49 -104 121 -156q76 -53 166 -65v479q-53 18 -120.5 47t-108.5 61q-51 41 -76 84q-29 51 -29 125q0 37 17 90q14 45 55 91q45 49 102 75q65 31 160 43v146l21 12q2 0 5 2t5 4q8 4 12 4q2 0 8 2t13 4l26 -22v-148q33 0 90 -8 q43 -6 80 -18t70 -29q20 -10 49 -35q4 -6 -2 -26q-6 -18 -21 -39l-11 -18q-11 -17 -19 -25q-12 -14 -31 -33l-39 8q-41 47 -82 74q-47 31 -84 41v-379q82 -33 123 -51q57 -25 109 -68q45 -37 77 -96q31 -55 31 -135q0 -51 -20 -119q-18 -63 -59.5 -112.5t-106.5 -90.5 q-65 -40 -154 -55v-143q-8 -8 -16 -13q-2 0 -6 -4t-6 -4q-2 -2 -7.5 -3t-7.5 -1q-12 -4 -20 -6l-27 22v144q-2 0 -5 -1t-5 -1h-10q-70 0 -144 24q-78 27 -166 82q-8 8 -10 33q-4 37 -4 66zM225 958q0 -39 17 -67q16 -31 43 -51q29 -23 65 -41q10 -6 23.5 -11.5l31 -12.5 l27.5 -11v350q-66 -4 -98 -16q-43 -16 -64 -35q-25 -23 -34 -51q-11 -31 -11 -54zM522 113q45 6 76 22q41 20 66 45q31 31 47 63.5t16 80.5q0 45 -16 84q-14 35 -43 63q-20 20 -66 47q-31 18 -80 39v-444z" />
<glyph unicode="%" horiz-adv-x="1411" d="M76 897q0 70 24.5 131.5t63.5 106.5q35 41 94 71q53 29 111 29q61 0 108 -27q49 -28 86 -73q37 -47 55 -107q18 -61 18.5 -131t-24 -131t-63.5 -106.5t-94 -73.5q-53 -29 -113 -29q-55 0 -106 29q-49 28 -86 73q-35 43 -54 107q-20 68 -20 131zM199 0l856 1188 q20 14 65 29q6 2 68 20l29 -33l-859 -1188q-16 -10 -26 -14q-4 -2 -16.5 -7t-20.5 -7l-41 -13l-31 -10zM221 920q0 -82 10 -125q12 -55 31 -88q16 -31 47 -52q25 -16 60 -16q27 0 47 14.5t39 44.5q16 27 26 76q10 47 11 103q0 71 -13 122q-12 55 -33 86q-23 37 -49 52 q-29 16 -55 16q-23 0 -43 -14.5t-38.5 -43t-29.5 -73.5q-10 -47 -10 -102zM778 309q0 70 25 131q23 57 65 107q37 43 93 71q51 27 110 27q61 0 109 -27q53 -31 84 -71q39 -53 55 -107q18 -61 18 -130.5t-24 -131.5q-27 -66 -64 -108q-35 -41 -94 -72q-53 -29 -111 -29 q-55 0 -106 29q-53 31 -84 72q-33 45 -55 108q-21 59 -21 131zM924 332q0 -74 12 -125q14 -61 29 -88q16 -31 47 -51q25 -16 59 -17q27 0 47.5 14.5t38.5 45.5q16 27 27 75q10 47 10 103q0 71 -12 123q-12 55 -33 86q-23 37 -49 51q-29 16 -56 16q-23 0 -43 -14t-38.5 -43 t-28.5 -74q-10 -47 -10 -102z" />
<glyph unicode="&#x26;" horiz-adv-x="1363" d="M80 352q0 111 78 225.5t223 221.5q-31 78 -47 139q-16 59 -17 135q0 84 27 150q33 78 72 120q47 51 104 78q61 29 121 29q66 0 107 -20q45 -23 71 -56q23 -27 37 -78q12 -43 12 -92q0 -102 -65 -196q-65 -92 -185 -166q-8 -6 -18 -11.5t-18 -11.5q-16 -12 -33 -22 q35 -68 78 -131l92 -127q55 -72 100 -123q70 -78 103 -111q37 59 49 101q16 55 16 96q0 45 -14.5 79.5t-36.5 63.5q-20 27 -51 43q-29 16 -58 17l-22 28q18 18 33 29q18 12 41 22h444l23 -36q-23 -27 -50 -52l-49 -37q-23 10 -41 17q-14 4 -47 12q-16 4 -45 8t-39 4 q6 -8 17 -34q8 -20 10 -33q6 -37 6 -39v-51q0 -70 -31 -150q-31 -82 -88 -153q76 -72 127 -113q41 -35 82 -43q47 -10 102 4l9 -43q-100 -43 -146 -57q-57 -18 -82 -19q-20 0 -77 41q-55 39 -127 109q-72 -59 -175 -107q-96 -43 -204 -43q-92 0 -170 25q-76 25 -131.5 74 t-85.5 118q-31 71 -31 166zM242 373q0 -68 24 -123q25 -57 64 -92q40 -37 92 -56q53 -18 106 -18q88 0 156 27q72 29 127 71q-49 51 -102 113q-70 82 -103 127q-86 117 -98 137q-35 55 -82 143q-49 -41 -86 -84t-57.5 -81.5t-30.5 -81.5q-10 -45 -10 -82zM444 1130 q0 -63 16.5 -120.5t47.5 -128.5l8 4q53 29 105 71q39 33 65.5 74t34.5 72q8 33 8 69q0 39 -8 66q-10 33 -27 55q-14 20 -45 37q-27 14 -61.5 14t-63.5 -18q-27 -16 -45 -49q-18 -31 -26 -68q-9 -35 -9 -78z" />
<glyph unicode="'" horiz-adv-x="512" d="M184 1356q2 0 25 10l33 12q6 2 14 6.5t16 6.5q6 2 14.5 4t10.5 2l31 -17l-31 -469q-4 -2 -16 -6q-2 0 -8.5 -2t-10.5 -2q-12 -4 -18 -4h-21z" />
<glyph unicode="(" horiz-adv-x="589" d="M90 1651l399 6v-144l-258 -2l7 -2287l262 -2v-144h-24.5t-62.5 1t-85 1h-234q0 483 -2 1117q-2 950 -2 1454z" />
<glyph unicode=")" horiz-adv-x="589" d="M90 -778v-144h24.5t62.5 1t85 1h234q0 483 2 1116t2 1455l-398 6l-2 -144l258 -2l-4 -2287z" />
<glyph unicode="*" horiz-adv-x="913" d="M70 993l325 140l-301 129q0 4 1 13t1 15v31q0 10 4 31q3 15 6 24l35 23l285 -211l-39 325q10 6 25 13q6 2 14 6t14 8q6 2 14.5 6t14.5 6q14 6 25 9l36 -21l-41 -352l261 196l49 -32q37 -25 45 -35l2 -41l-326 -141l301 -129q-4 -33 -4 -60q0 -37 -8 -55l-37 -23l-283 211 l39 -323q-4 -2 -11 -5t-13 -8q-2 -2 -11.5 -7t-15.5 -7l-28 -12q-8 -4 -25 -8l-39 18l41 352l-260 -196q-4 2 -10 7t-15 9q-14 8 -26 16q-6 4 -12.5 9.5t-12.5 9.5q-14 12 -18 16z" />
<glyph unicode="+" horiz-adv-x="839" d="M61 530l13 43q6 16 18 45h270v273q4 2 12.5 4t15.5 5t16 5q10 4 47 15l24 -23v-279h277l24 -24q-8 -29 -14 -45q-14 -41 -16 -43h-271v-270l-45 -19q-10 -4 -26.5 -8t-18.5 -4l-25 22v279h-276z" />
<glyph unicode="," horiz-adv-x="468" d="M88 139q6 8 39 27q18 10 63 31q34 15 68 24q31 8 51 8q45 -20 66 -63q16 -35 16 -96q0 -35 -16 -88q-16 -51 -45 -101q-33 -57 -70 -98q-43 -49 -94 -88l-45 35q31 35 47 61q23 37 33 64q8 23 16 67q6 37 6 78q0 45 -28.5 69.5t-90.5 22.5z" />
<glyph unicode="-" horiz-adv-x="688" d="M61 479q0 2 4.5 18.5t8.5 26.5q6 16 18 45h512l25 -24q-10 -37 -15 -47q-16 -41 -16 -43h-512z" />
<glyph unicode="." horiz-adv-x="468" d="M131 72q0 39 10 63q12 33 30.5 53.5t45.5 34.5q25 12 53 13q51 0 74 -29q25 -31 25 -84q0 -29 -11 -64q-8 -31 -28 -53q-14 -18 -45 -33q-29 -14 -54 -14q-53 0 -77 31q-23 29 -23 82z" />
<glyph unicode="/" horiz-adv-x="841" d="M100 -84l482 1683h161l-485 -1683h-158z" />
<glyph unicode="0" d="M76 602q0 131 30 244q31 115 86.5 201t135.5 137t172 51q98 0 167.5 -49t120.5 -137q47 -82 72 -201q25 -117 25 -246q0 -131 -31 -244q-31 -115 -86 -200q-59 -92 -133 -138q-84 -51 -174 -51q-92 0 -166 51q-70 49 -121 138q-49 86 -74 200q-24 113 -24 244zM240 645 q0 -141 20 -242q23 -106 55 -176q31 -66 82 -106q43 -35 103 -35q55 0 94 27q40 28 68 86q31 63 45 149q14 84 14 217q0 141 -21 242q-20 96 -59 172q-37 70 -82 106q-43 35 -98 35q-51 0 -92 -28q-45 -31 -70 -84q-28 -58 -43 -148q-16 -94 -16 -215z" />
<glyph unicode="1" d="M139 1075q41 12 99 33q78 29 116 45q78 33 113 49q52 25 86 43l37 -35v-1067q0 -12 10 -22t39 -23q27 -12 78 -24q41 -10 123 -21v-53h-670v53q86 10 129 21q68 16 84 22q31 12 43 25q14 14 14 22v797q0 33 -4 61q-4 23 -14 37q-8 8 -23 11q-12 2 -49 2q-31 0 -78 -7 q-61 -8 -112 -20z" />
<glyph unicode="2" d="M98 74l207 243l152 189q68 88 104 143q49 76 66 109q23 47 32 88q8 35 9 78q0 53 -11 86q-12 43 -34 69q-25 31 -64 45q-43 16 -92 17q-41 0 -76 -19q-33 -18 -57 -49q-29 -35 -39 -67q-14 -43 -14 -72q-27 -12 -31 -16q-10 -8 -27 -15l-10 -5t-11 -5t-9 -2q-4 -2 -41 -6 l-27 30q0 51 35 109q33 53 94 102.5t131 77.5q74 31 150 31q66 0 112 -16q55 -18 92 -52q35 -31 60 -88q23 -55 22 -127q0 -43 -12 -90q-10 -43 -41 -98q-33 -61 -70 -115q-35 -49 -106 -139l-143 -172l-183 -217h418q27 0 45 18q16 16 31 45q8 18 16 52q2 12 8 45l2 18 l50 -12l-15 -287h-694z" />
<glyph unicode="3" d="M68 119l34 67q63 -47 82 -57q39 -23 72 -35q25 -8 66 -16q35 -6 71 -6q61 0 110.5 18.5t86.5 54.5q33 33 55 88q20 49 21 115q0 80 -23 127q-25 52 -61 86q-35 31 -82 47q-43 14 -90 15h-21h-12q-2 0 -6 -1t-6.5 -1t-22.5 -5l-14 60q94 25 147 57.5t84 69.5t39 71 q10 41 10 66q0 29 -10 70q-8 35 -33 65q-20 27 -57 47q-33 18 -82 19q-41 0 -72 -13q-27 -10 -53 -36q-18 -18 -29 -54q-8 -29 -2 -65q-29 -16 -65 -27q-31 -9 -74 -12l-27 31q0 43 31 90q35 51 82 88q45 35 121 65q66 27 145 27q78 0 129 -25q57 -27 88 -63q35 -41 50 -88 q16 -53 16 -101q0 -41 -14 -75q-16 -39 -43 -72q-31 -37 -66 -61q-49 -35 -88 -52q55 -6 106.5 -34.5t86 -69.5t57.5 -98q20 -53 20 -115q0 -88 -26 -160q-29 -78 -80 -131q-49 -51 -131 -88q-74 -33 -182 -33q-27 0 -80 8q-41 6 -84 25q-47 20 -86 45q-37 23 -88 72z" />
<glyph unicode="4" d="M55 383l496 791q39 16 76 36l61 35l37 -35v-749h123l26 -31q-25 -35 -38 -47q-4 -4 -18.5 -15.5l-22.5 -17.5h-70v-246q0 -8 6 -14q8 -8 23 -14q31 -12 43 -17l67 -16v-43h-489v43q102 18 106 20q37 8 63.5 18.5t33.5 16.5q8 8 8 17v235h-498zM213 461h373v579z" />
<glyph unicode="5" d="M78 119l35 67q55 -39 96 -59q45 -23 82 -35q41 -14 67 -16q41 -4 60 -4q66 0 114 24q51 27 80 66q33 47 47 94q16 55 17 111q0 66 -17 125q-14 53 -49 94q-34 40 -86 61q-55 23 -121 23q-31 0 -49 -4q-2 0 -55 -17q-25 -8 -59 -24q-37 -18 -56 -35l-47 33l15 84 q8 47 16 100l16 108q12 78 17 107q8 70 12 100q2 18 4 47t2 35h436q53 0 88 10l33 9l29 -29q-4 -4 -11.5 -15.5t-13.5 -17.5q-20 -25 -30 -35l-9.5 -10t-10.5 -10t-9 -8t-13.5 -11.5t-13.5 -11.5h-387l-8 -74q-2 -14 -5 -46.5t-5 -47.5q-2 -16 -7.5 -47l-7.5 -43 q-2 -16 -6 -36.5t-4 -26.5q41 12 94 18q74 8 105 8q90 0 160 -30q72 -31 116 -82q49 -57 72 -117q25 -68 25 -141q0 -88 -27 -166q-29 -82 -76 -142q-45 -57 -125 -96q-74 -37 -168 -37q-90 0 -184 35q-90 33 -178 115z" />
<glyph unicode="6" d="M111 473q0 137 41 270q39 125 124 234q86 106 211 176q133 72 301 96l19 -59q-119 -29 -209 -82q-92 -55 -158 -127q-70 -76 -106 -156q-39 -86 -55 -176q37 37 71 58q33 18 72 36q29 12 65 21q31 6 54 6q78 0 143 -25q61 -23 107 -71q49 -51 67 -113q23 -72 23 -149 q0 -41 -11 -99q-8 -43 -32 -100q-23 -53 -52 -92q-33 -45 -73 -78q-39 -31 -95 -53q-49 -20 -112 -21q-83 0 -154 37q-74 39 -125 103q-55 70 -86 159q-30 92 -30 205zM270 537q0 -121 18.5 -207t55.5 -142q39 -57 88 -84q53 -29 113 -28q53 0 90 24q35 23 57 66 q23 41 31 88q8 43 8 94q0 90 -22 154q-20 59 -58 96q-35 35 -73 47q-47 14 -78 14q-49 0 -113 -28t-117 -94z" />
<glyph unicode="7" d="M104 948q0 4 2.5 15.5t3.5 21.5t3 21q2 12 5 35.5t5 35.5l12 72q6 34 12 55h705l33 -37l-92 -217l-93 -219l-86 -207l-75 -190l-34 -89l-28 -75q-4 -10 -45 -127q-34 -25 -74 -43q-41 -18 -88 -31l-41 33q98 176 156 293l127 270l113 256l108 254h-454q-4 0 -14.5 -1 t-14.5 -1q-12 0 -29 -12q-14 -10 -33 -43q-16 -29 -38 -88z" />
<glyph unicode="8" d="M94 285q0 55 18.5 104t53.5 96q35 49 82 86q45 37 108 72q-35 18 -80 45q-40 25 -67 55q-29 33 -47 74q-16 39 -17 98q0 72 27 127q29 61 76 103q45 39 114 65q63 25 140 25q78 0 133 -21q58 -22 98 -55q39 -33 62 -84q20 -47 20 -106q0 -45 -14 -80q-16 -39 -43 -72 q-33 -39 -64 -65q-41 -35 -82 -64q57 -29 95 -53q53 -35 81 -70q34 -40 56 -92q20 -49 20 -121q0 -82 -33 -147q-35 -72 -88 -121q-53 -51 -133 -84q-74 -31 -159 -31q-82 0 -152 27q-63 25 -113 70q-43 39 -69 100q-23 51 -23 119zM254 315q0 -57 16 -98q16 -43 49 -78 q29 -31 78 -51q45 -18 103 -18q55 0 94 20q41 23 65.5 55.5t36.5 77.5q10 35 11 86q0 70 -23 113q-27 49 -61 82q-33 29 -88 57q-88 45 -101 49q-39 -27 -82 -69q-34 -34 -55 -68q-25 -39 -33 -74q-10 -45 -10 -84zM274 950q0 -43 21 -76q23 -37 57 -59q39 -27 84 -47 l96 -43q72 51 105 106q31 53 31 106.5t-15 90.5q-14 35 -45 64q-28 25 -67 36q-41 12 -90 13q-47 0 -78 -17q-35 -18 -56 -45q-20 -25 -32 -61q-11 -29 -11 -68z" />
<glyph unicode="9" d="M100 795q0 49 13 102q10 47 39 102q23 43 63 93q39 45 82 73q55 37 96 52q53 18 113 18q68 0 135 -29q63 -27 117 -90q49 -59 82 -158q31 -95 30 -227q0 -150 -41 -282q-39 -127 -124 -232q-80 -98 -213 -168q-131 -68 -302 -92l-18 59q145 37 229 86q94 53 160 127 q63 70 98 158q37 92 46 188q-51 -57 -127 -96q-68 -35 -140 -35q-84 0 -143 27q-61 28 -105 74q-47 51 -67 110q-23 68 -23 140zM248 856q0 -90 22 -151q18 -51 58 -91q35 -35 75 -47q39 -12 78 -12q66 0 127 39q57 35 101 98q-4 139 -25 211q-25 86 -59.5 135t-77.5 72 q-41 20 -82 20q-53 0 -92 -20q-41 -23 -67.5 -57.5t-43.5 -87.5q-14 -46 -14 -109z" />
<glyph unicode=":" horiz-adv-x="468" d="M131 72q0 39 10 63q12 33 30.5 53.5t45.5 34.5q25 12 53 13q51 0 74 -29q25 -31 25 -84q0 -29 -11 -64q-8 -31 -28 -53q-14 -18 -45 -33q-29 -14 -54 -14q-53 0 -77 31q-23 29 -23 82zM131 797q0 39 10 63q12 33 30.5 53.5t45.5 34.5q25 12 53 13q51 0 74 -29 q25 -31 25 -84q0 -29 -11 -64q-8 -31 -28 -53q-14 -18 -45 -33q-29 -14 -54 -14q-53 0 -77 31q-23 29 -23 82z" />
<glyph unicode=";" horiz-adv-x="468" d="M131 797q0 39 10 63q12 33 30.5 53.5t45.5 34.5q25 12 53 13q51 0 74 -29q25 -31 25 -84q0 -29 -11 -64q-8 -31 -28 -53q-14 -18 -45 -33q-29 -14 -54 -14q-53 0 -77 31q-23 29 -23 82zM88 139q6 8 39 27q18 10 63 31q34 15 68 24q31 8 51 8q45 -20 66 -63q16 -35 16 -96 q0 -35 -16 -88q-16 -51 -45 -101q-33 -57 -70 -98q-43 -49 -94 -88l-45 35q31 35 47 61q23 37 33 64q8 23 16 67q6 37 6 78q0 45 -28.5 69.5t-90.5 22.5z" />
<glyph unicode="&#x3c;" horiz-adv-x="897" d="M61 530v2v5l5 8q0 4 2 8q2 6 2 12l4 8v7q0 4 4 8v4q0 2 1 2t1 2q2 4 2 8t4 8q2 2 2 6.5t2 6.5l2 4l721 270l25 -25q-2 -14 -7 -24q-4 -12 -8 -26.5t-8 -26.5q-2 -6 -6 -23l-555 -207l567 -209l17 -36l-19 -19q-6 -6 -18 -14l-21 -17q-2 -2 -26 -16l-668 250z" />
<glyph unicode="=" horiz-adv-x="897" d="M61 381q0 2 4.5 18.5t8.5 26.5l18 43h721l25 -25q-10 -37 -15 -47l-14 -43h-723zM61 680q0 2 4.5 18.5t8.5 26.5q9 25 18 43h721l25 -25q-8 -29 -15 -45q-4 -10 -6 -18t-4 -12t-4 -13h-723z" />
<glyph unicode="&#x3e;" horiz-adv-x="897" d="M61 281q2 10 7 22l8 29q2 6 5 14t3 12q2 4 5 11.5t3 9.5l551 207l-565 209l-17 39q12 10 24.5 18t20.5 16q14 10 39 31l670 -250l23 -24l-7 -25l-4 -12v-4q0 -2 -1 -2t-1 -2q-2 -2 -3 -7.5t-1 -7.5q-4 -12 -4 -16l-1 -2l-1 -2l-1 -2q-1 -2 -1 -4q-2 -2 -2 -9q0 -2 -4 -6 l-721 -268z" />
<glyph unicode="?" horiz-adv-x="886" d="M80 1137v16q0 66 35 129q34 61 92 104q63 47 135 70q77 25 160 25q63 0 131 -25q53 -20 94 -63q37 -41 59 -101q20 -55 21 -127q0 -80 -23 -135q-27 -66 -59 -112q-37 -52 -80 -99q-31 -33 -80 -98q-33 -43 -63 -109q-27 -55 -33 -127l-6 -96q-20 -18 -33 -24 q-8 -4 -43 -17l-25 21l-8 116q-4 61 17 113q18 49 53 111q27 47 70 108q25 35 69 105q35 55 55 100q23 51 23 98q0 125 -55.5 194.5t-161.5 69.5q-31 0 -68 -16q-29 -12 -57.5 -45t-40.5 -61q-14 -35 -14 -76q0 -8 4 -29q4 -16 8 -29q-18 -10 -68 -24q-27 -8 -79 -14l-27 30 q-2 7 -2 17zM301 72q0 39 10 63q12 33 30.5 53.5t45.5 34.5q25 12 53 13q51 0 74 -29q25 -31 25 -84q0 -29 -11 -64q-8 -31 -28 -53q-16 -18 -45 -32.5t-54 -14.5q-53 0 -77 31q-23 29 -23 82z" />
<glyph unicode="@" horiz-adv-x="1652" d="M70 465q0 114 30 221q33 111 86 205q55 94 136 178q80 82 172 139.5t204 91.5q104 33 226 33q141 0 270 -51q121 -47 209 -149q88 -100 133 -246q47 -152 47 -338q0 -90 -20 -164q-23 -80 -54 -139q-35 -68 -75 -117q-33 -41 -91 -86q-41 -33 -96 -53.5t-90 -20.5 q-23 0 -47 11q-14 6 -39 34q-18 20 -31 60q-16 47 -20 88q-31 -45 -72 -94q-33 -39 -61 -60q-27 -18 -61.5 -28.5t-71.5 -10.5q-51 0 -103 33q-55 37 -96 94q-41 59 -70 150q-27 86 -26 198q0 59 14 117q16 66 39 119q18 47 63 108q31 43 87 89q49 41 106 61q61 23 121 23 q18 0 43 -5q12 -2 37 -14q18 -10 39 -27q23 -18 47 -47q16 10 53 39q25 18 55 54l31 -31l-4 -17q-6 -20 -12 -45q-2 -10 -5.5 -33.5t-5.5 -31.5q-4 -25 -4 -80v-438q0 -90 31 -133t78 -43q20 0 57 32q31 29 64 86q31 53 51 127q20 70 20 158q0 168 -43 299t-120.5 221 t-182.5 135q-111 47 -233 47q-94 0 -191 -26q-88 -25 -164 -72q-68 -41 -131 -112q-61 -68 -98 -140q-39 -76 -61 -164q-20 -82 -21 -176q0 -181 55 -325q55 -143 152 -246q94 -100 217 -156q119 -53 260 -53q84 0 164 18q102 23 150 43q84 35 122 58q55 33 84 55l27 -55 q-39 -39 -94 -80q-66 -47 -133 -78q-88 -39 -168 -57q-96 -23 -201 -23q-168 0 -315 60q-143 57 -248 168q-109 115 -164 264q-57 153 -57 348zM610 475q0 -90 21 -153q25 -76 51 -119q25 -41 70 -74q35 -27 73 -27q18 0 37 7q14 4 39 22q8 4 47 45q33 33 66 74v481 q-23 41 -29 49q-20 29 -33 39q-16 14 -41 25q-18 8 -53 8q-55 0 -100 -25q-43 -23 -78 -69q-31 -43 -51 -119q-19 -70 -19 -164z" />
<glyph unicode="A" horiz-adv-x="856" d="M59 596q0 8 8.5 16.5t18.5 10.5q16 4 27 4q6 0 26 4q10 2 23 6q16 -12 28 -37q8 -16 29 -47q12 -18 23 -4q0 8 -1 16q0 85 31 133q47 76 177 101q11 2 22 1q47 0 102 -30q59 -31 91 -88q22 -43 21 -122q0 -19 -1 -40q-2 -88 -63 -149q-47 -45 -127 -60q-38 -8 -75 -7.5 t-69 7.5q-4 -17 -3 -34q0 -41 20 -82q27 -51 84 -84q51 -29 88 -39q46 -12 98 -13q49 0 92 19q18 23 28.5 8.5t10.5 -39.5q0 -33 -2 -43q-47 -47 -127 -63q-29 -5 -56 -5q-45 0 -87 13q-102 33 -172 100q-76 70 -99 162q-3 15 -6 86q-2 55 -6 84q-111 98 -143 188 q-11 15 -11 27zM334 573q-10 -22 -10 -44q0 -27 14 -54q25 -49 76 -61q33 -12 65 -13q37 0 64 17q29 16 41 51q17 24 17 58q0 6 -1 12q-2 35 -20 69q-16 31 -48 54q-27 19 -58 18h-9q-45 -4 -78 -33q-35 -33 -53 -74z" />
<glyph unicode="C" horiz-adv-x="927" d="M59 748q3 -2 9 -3q30 0 122 66q94 68 230 193q127 119 235 256q113 143 142 237q2 6 8 6q4 0 4 -2l45 -119q-6 -20 -22.5 -61t-30.5 -70l-27 -53v-2q-12 -27 -63 -133l-68 -141l-55 -131q-41 -100 -53 -140l-37 -133q-14 -59 -23 -143q-3 -26 -3 -50q0 -45 11 -79 q18 -57 60 -80q61 -33 139 -33q76 0 143 23l43 -136q-97 -30 -183 -30q-113 0 -210 51h-2q-92 53 -125 164q-18 61 -18 125q0 29 4 57q22 240 160 547q-66 -61 -103 -92q-172 -147 -287 -207z" />
<glyph unicode="D" horiz-adv-x="632" d="M45 -301q-1 22 -1 44q0 277 140 581h2q129 268 316 432l88 -109q-166 -145 -283 -387q-126 -269 -126 -511q0 -22 1 -44q10 -182 101 -260q41 -35 110 -45q30 -4 55 -4q40 0 76 10l29 -139q-57 -12 -113 -12q-5 0 -9 -1q-137 0 -234 82q-139 117 -152 361v2z" />
<glyph unicode="E" horiz-adv-x="884" d="M10 29l584 798q33 9 59 9q57 0 84 -43l-8 -799l-141 6l12 539l-43 12l-426 -600z" />
<glyph unicode="G" horiz-adv-x="4" d="M0 16v9h6v-9h-6z" />
<glyph unicode="H" horiz-adv-x="4" d="M0 16v9h6v-9h-6z" />
<glyph unicode="I" horiz-adv-x="927" d="M59 -37l66 160l72 29q20 10 39 18q39 18 47 23l26.5 18t28.5 18q33 20 51 43q27 29 35 56q-111 23 -186 92q-68 61 -76 151q-2 17 -2 34q0 85 53 147q29 39 70 61q47 27 88 35q19 3 37 3q59 0 114 -30q92 -49 133 -127q25 -48 25 -114q0 -34 -6 -74q139 86 180 137 l14 -147q-10 -12 -22 -25q-6 -6 -21 -12q-10 -4 -28 -19q-10 -8 -103 -65q-47 -31 -108 -49q-14 -10 -21 -21q-10 -14 -14 -29q-6 -18 -6 -20q-25 -53 -78 -102q-45 -43 -123 -95q-61 -34 -92 -49q-29 -14 -88.5 -30.5t-104.5 -16.5zM322 520q33 -39 69 -59q39 -20 82 -20.5 t68 30.5q22 27 21 57q0 7 -1 15q-6 43 -33 78q-25 33 -65 63q-43 33 -78 35h-10q-36 0 -60 -19q-27 -43 -27 -87q1 -53 34 -93z" />
<glyph unicode="K" horiz-adv-x="1173" d="M94 492q-6 43 -6 86q0 113 41 221q45 141 168 235q121 94 268 107q-2 182 -2 372l139 3q0 -23 1.5 -148t1.5 -229q78 -8 157 -52q74 -39 119 -106q104 -165 104 -402q0 -118 -26 -255q-8 -98 -74 -179q-63 -78 -162 -82l-2 130q10 8 35 24q12 8 37 37q16 20 20 45 q16 84 29 186q4 33 4 73q0 48 -6 110q-8 92 -45 182q-22 58 -74 98q-49 37 -116 47q0 -457 -5 -620q-1 -15 0 -32v-30.5v-27.5v-88q0 -35 -8 -80q-12 -55 -65 -86q-44 -26 -94 -26q-10 0 -19 1q-90 12 -176 66q-78 49 -133 133q-91 129 -111 287zM231 600q-1 -13 0 -25 q0 -136 62 -245q35 -66 86 -115q45 -43 121 -63q13 -7 25 -8q5 0 10 1q16 4 18 19q6 31 6 33v39q7 569 7 665q0 55 -1 98q-74 -10 -135 -45q-66 -37 -111 -94q-82 -108 -88 -260z" />
<glyph unicode="L" horiz-adv-x="1103" d="M90 831l137 50q2 -4 6.5 -17.5t11.5 -32t13 -38.5q22 -68 43 -111q20 -43 53 -78q18 -23 54 -39q41 -20 61 -24l68 -13q55 -8 65 -10q57 -12 152 -12l1 -13q1 -13 1 -23.5t1 -27t1 -22.5q0 -29 -2 -41q-4 -20 -8 -23q-59 0 -105 -2q-20 0 -37.5 -2t-29 -3t-13.5 -1 q-31 -6 -59 -8q-45 -4 -66 -12q-16 -34 -16 -73v-11q4 -49 29 -78q29 -27 67 -35q51 -12 96 -14q24 0 49 -1q168 0 334 19l17 -147q-55 -6 -174 -15q-6 0 -16.5 -1t-29 -2t-34.5 -1q-41 -2 -90 -2q-47 0 -80 2q-47 2 -88 12.5t-76 26.5q-78 29 -117 103q-36 66 -35 136v21 q6 102 58 160q-4 14 -35 35q-33 20 -43 35q-45 41 -76 100q-31 57 -49 115z" />
<glyph unicode="N" horiz-adv-x="851" d="M90 55q39 59 139 189q104 135 105 141q2 16 -25 53q-28 37 -30 43q-74 96 -113 209q-39 115 -39 240q3 83 12 196q10 125 31 193q25 96 102 166q75 66 166 65h8q94 -4 158 -67q70 -70 84 -158q18 -164 21 -178q8 -98 8 -170q0 -115 -12 -184q-15 -86 -43 -166 q-35 -76 -146 -236l248 -313l-113 -88l-223 282l-111 -147q-80 -106 -108 -150zM270 963q0 -12 4 -91q2 -43 19 -104q12 -45 22 -68q23 -49 31 -61q16 -29 37 -59l41 -58q12 6 33 33q8 10 39 63l30 52q25 71 37 147q11 67 11 136q0 15 -1 30q-3 89 -6 147q-2 37 -16 160 q-3 49 -37 86q-31 34 -68 34q-6 0 -12 -1q-23 0 -47 -14q-18 -10 -39 -35q-16 -20 -26 -39l-17 -51q-2 -4 -10 -49q0 -6 -3 -18.5t-5 -33.5q0 -4 -1 -15l-3 -33.5l-4 -45.5q-9 -106 -9 -112z" />
<glyph unicode="O" horiz-adv-x="856" d="M61 426q-2 18 -1 37q0 109 63 209q74 117 196 174l58 -121q-68 -33 -119 -96q-65 -77 -65 -171q0 -22 4 -44q12 -96 49 -162q41 -74 106 -111q36 -14 74 -14q35 0 72 12q74 25 116 90q50 85 50 192q0 40 -7 83q-12 72 -45 125q-34 55 -92 73q-29 8 -28 23v115q0 6 10 6 t18 -2q2 0 27 -10q14 -6 20 -7q84 -29 146 -112q57 -78 75 -178q10 -46 10 -97.5t-10 -111.5q-18 -111 -75 -193q-72 -102 -199 -133q-44 -11 -86 -11q-80 0 -152 40q-96 57 -151 164q-54 104 -64 231z" />
<glyph unicode="P" horiz-adv-x="1230" d="M90 -96l100 110l138 -426q10 -31 22 -39q16 -10 31 -4t30.5 18.5t24.5 30.5l596 1192l111 -120l-606 -1229q-57 -111 -95 -152q-43 -49 -73 -49q-25 0 -47 16q-18 14 -33 41q-10 20 -21 52q-12 39 -14 49z" />
<glyph unicode="Q" horiz-adv-x="794" d="M45 821l53 -125q6 -2 43 -2q31 0 45 -6q23 0 33 -8q12 -8 19 -23q2 -6 5 -9t6 -8t7 -13q20 -53 37 -115q31 -117 37 -145q20 -98 26 -115q4 -31 23 -86q16 -51 37 -78q84 -104 251 -104q18 0 38 2v137q-16 4 -50 4q-31 0 -55 8q-76 23 -84 64q-18 61 -49 202 q-23 102 -55 211l-23 62q-12 35 -26.5 59.5t-40.5 50.5q-66 51 -195 54q-45 -1 -82 -17z" />
<glyph unicode="R" horiz-adv-x="839" d="M90 -14v137q16 4 51 4q29 0 54 8q76 23 84 64q18 61 49 202q23 102 55 211l23 62q12 35 26 59.5t41 50.5q66 51 197 54q43 0 80 -17l-54 -125q-6 -2 -43 -2q-31 0 -45 -6q-23 0 -33 -8q-12 -8 -18 -23q-2 -6 -16 -30q-27 -70 -39 -115q-20 -76 -35 -145l-17.5 -74 t-9.5 -41l-22 -86q-16 -51 -37 -78q-81 -104 -254 -104z" />
<glyph unicode="S" horiz-adv-x="854" d="M92 518q6 58 19 123q12 70 24 115v4v2q27 88 82 209q49 106 100 194l113 185l119 178l117 -76l-93 -143q-53 -78 -90 -142q-68 -115 -82 -143q-37 -72 -71 -150q-39 -88 -58 -151q-16 -74 -18 -90q0 -6 -5 -32l-9 -48q-6 -39 -7 -88q0 -31 7 -70q6 -37 22 -73v-3 q39 -86 127 -141q82 -53 180 -53q119 4 164 25l64 -125q-35 -16 -82 -27q-61 -12 -70 -12q-6 0 -30.5 -1t-43.5 -1q-139 0 -258 75q-123 78 -178 199q-29 59 -39 131q-6 48 -6 86q0 23 2 43z" />
<glyph unicode="T" horiz-adv-x="641" d="M-41 1497q14 20 43 27q41 8 86 8q20 0 42 2l22 2q147 -3 251 -80q129 -127 148 -403q3 -56 3 -113q0 -216 -46 -430q-57 -270 -182 -518l-127 61q201 397 213 858q0 86 -2 113q-6 72 -11 104q-10 70 -26 115q-18 47 -51 94q-68 54 -181 55q-68 0 -151 -20z" />
<glyph unicode="U" horiz-adv-x="880" d="M90 -47l123 2q0 174 63 387q72 223 177 322q61 -55 118 -211q78 -227 99 -510l123 12q-18 258 -78 465q-29 102 -80 213q-41 88 -113 149q-27 27 -55 33q-10 2 -19 2l-42 -12q-127 -100 -213 -320q-103 -272 -103 -532z" />
<glyph unicode="V" horiz-adv-x="880" d="M90 805l123 -2q0 -176 63 -389q70 -219 177 -320q63 57 118 209q78 225 99 512l123 -12q-18 -258 -78 -465q-29 -102 -80 -213q-43 -90 -113 -152q-25 -25 -55 -30q-10 -2 -19 -2l-42 12q-127 100 -213 319q-103 273 -103 533z" />
<glyph unicode="W" horiz-adv-x="993" d="M96 -31q-6 6 -6 24q0 31 21 109q29 104 90 250q59 137 110 201q0 2 -35 47q-28 37 -36 62l94 110q6 -6 14 -20q14 -25 17 -27q4 -4 10 -12l10 -13q6 -8 21 -8q10 0 20 17q31 51 86 90q53 37 109 37q80 0 145 -50q14 -12 29 -28q27 -33 28 -35q16 -25 27 -37 q51 -70 55 -147q0 -59 -26 -107q-29 -51 -72 -76q-91 -50 -155 -49h-13q-76 2 -121 27q-39 20 -106 98q-43 -8 -115 -176q-68 -160 -78 -262q-16 -6 -67 -14q-33 -5 -56 -11zM492 563q23 -57 67.5 -96t95.5 -49q5 -1 10 -1q24 0 52 13q34 15 55 43q8 15 8 36q0 37 -24 89 q-70 127 -160 127h-4q-31 -3 -55 -25q-31 -25 -45 -61q-8 -20 -8 -39t8 -37z" />
<glyph unicode="X" horiz-adv-x="1259" d="M90 1432q2 2 57 32l56 29l542 -956l181 159l182 160q2 0 33 -35q31 -34 30 -37l-186 -166l-100 -91t-68 -59l-20 -17l104 -191l109 -190l-8 -4l-22 -12.5l-30 -16.5l-55 -31l-100 176l-101 176l-196 -172l-195 -172l-65 72l403 363l-274 491z" />
<glyph unicode="Y" horiz-adv-x="917" d="M55 621q-10 -35 -9 -72q0 -40 11 -88q20 -84 72 -154q29 -45 74 -59q29 -10 57 -10l35 4q119 23 188 71q6 4 31 23q16 12 18 14q4 4 9 6q2 2 8 3t8 1q4 -6 21 -30q14 -18 22 -37q76 -156 96 -260q-4 -31 4 -33l125 -16q1 0 2 -1q3 0 3 7q0 6 -3 18q-4 57 -18 119 q-12 45 -39 109l-23.5 55l-21.5 51q-45 96 -102 190l65 144l-110 92l-60 -90l-39 43q-29 33 -39 41q-18 18 -43 37q-23 16 -49 26q-37 14 -71 14q-26 0 -54 -8q-109 -32 -168 -210zM160 551q6 80 67 129q23 21 42 21q6 0 12 -3q70 -27 118 -71q12 -8 21 -21q2 -4 8 -11 t10 -11q8 -10 15 -27q8 -20 10 -31q1 -8 1 -15q0 -69 -77 -122q-34 -22 -86 -24q-5 0 -9 -1q-37 0 -79 21q-29 14 -43 66q-11 37 -11 79q0 10 1 21z" />
<glyph unicode="Z" horiz-adv-x="851" d="M59 756q47 12 129 12q106 0 234 -39q225 -70 283 -217q35 -80 38 -260q0 -83 -6 -178q25 0 58 -4l-13 -142q-14 2 -59 2q-3 -22 -6 -30q-29 -205 -82 -353q-66 -182 -158 -256q-43 -33 -90 -45q-19 -5 -39 -4q-32 0 -65 13q-63 18 -107 67q-45 51 -65 115q-25 73 -26 152 q0 61 15 128q37 162 152 258q116 97 272 97q25 0 51 -2h19q6 66 6 180q0 147 -25 203l-2 2v2q-16 39 -67 75q-53 39 -129 64q-78 23 -154 29q-21 2 -41 1q-51 0 -90 -10zM240 -315q-9 -40 -10 -84q0 -56 16 -117q10 -41 47 -70q39 -29 47 -28q2 -2 6.5 -2t11.5 2q10 2 29 16 q61 49 112.5 192.5t78.5 325.5v6h-7l-4 2q-12 2 -37 2q-113 0 -188 -63q-73 -61 -102 -182z" />
<glyph unicode="[" horiz-adv-x="630" d="M139 -336v1935h416l33 -24q0 -2 -4 -21.5t-9 -29.5l-14 -35h-280v-1708h274l35 -31l-12 -43q-16 -41 -17 -43h-422z" />
<glyph unicode="\" horiz-adv-x="831" d="M100 1610l473 -1684h160l-471 1684h-162z" />
<glyph unicode="]" horiz-adv-x="630" d="M41 1513q2 20 12 46l15 40h421v-1935h-413l-33 31q2 14 10 47q4 20 15 39h282v1708h-274z" />
<glyph unicode="^" horiz-adv-x="1007" d="M100 592l322 870q16 16 29 25l36 24q31 20 35 23l33 16l352 -915q-33 -29 -49 -39q-27 -16 -57 -31l-37 27l-283 723l-250 -680q-2 -2 -10 -9.5t-14 -11.5t-16.5 -10t-14.5 -10q-25 -14 -29 -16q-14 -8 -24 -13z" />
<glyph unicode="_" horiz-adv-x="991" d="M0 -170h1139v-115h-1139v115z" />
<glyph unicode="`" horiz-adv-x="534" d="M100 492q4 51 37 83q29 33 80 46q49 12 96 -6.5t70 -59.5q29 -41 23 -100q-6 -51 -41 -88t-82 -48q-43 -8 -93 15q-43 23 -67 63q-27 46 -23 95z" />
<glyph unicode="a" horiz-adv-x="720" d="M45 -25q26 -3 52 -2q90 0 173 33q111 43 185 139q147 187 147 550q0 59 -4 122l-135 -8q4 -59 3 -114q0 -314 -120 -466q-95 -119 -246 -119q-21 0 -43 3z" />
<glyph unicode="b" horiz-adv-x="866" d="M92 -289q0 121 78 217q68 82 143 111q72 25 146 24q31 0 47 -2q-10 532 -10 693h141q8 -190 8 -662q0 -35 8 -35h123v-143h-127q6 -356 6 -590q-2 -8 0 -20.5t0 -20.5q-4 -10 -14 -12q-90 -29 -184 -29q-102 0 -178 58q-115 86 -148 178q-39 108 -39 233zM236 -326 q0 -31 2 -45q10 -66 41 -125q29 -61 98 -94q57 -27 106 -26q18 0 29 2q-4 137 -4 491q0 16 -4 29q-6 9 -12 12q-4 2 -17 2h-24q-80 0 -140 -47q-43 -37 -63 -111q-12 -43 -12 -88z" />
<glyph unicode="d" horiz-adv-x="815" d="M150 -672l59 1450l135 -6l-45 -1196q0 -12 8 -16q12 -6 21 6l348 463l96 -74l-485 -674q-36 -33 -65 -33q-9 0 -17 2q-37 12 -55 78z" />
<glyph unicode="e" horiz-adv-x="706" d="M94 817l137 -8q-4 -61 -3 -117q0 -313 118 -463q95 -119 248 -119q21 0 43 3l10 -138q-26 -3 -51 -2q-88 0 -172 33q-111 43 -184 139q-149 189 -150 553q0 57 4 119z" />
<glyph unicode="f" horiz-adv-x="817" d="M45 358q2 143 86 271q84 129 217 178q72 25 162 31q-37 209 -121 395l-41 72q-25 39 -37 53q-20 23 -47 35l53 131q35 -14 74 -45q35 -29 55 -58q14 -20 39 -65l31 -60v-2l2 -2q96 -213 135 -450q27 0 56 4l20 -141q-25 -3 -55 -7q6 -63 6 -131v-2q0 -51 -4 -121 q-4 -63 -14 -118q-12 -63 -41 -125q-35 -74 -68 -111h-2q-74 -86 -191 -104q-27 -4 -51 -5q-93 0 -166 62h-2h-2q-34 34 -55 74q-23 43 -29 86q-10 74 -10 78q-1 10 -1 23q0 8 0.5 25.5t0.5 28.5zM188 356v-18q0 -141 48 -188q32 -25 76 -25q13 0 26 2q65 9 104 55 q53 63 76 160q20 90 21 221q0 43 -9 129q-96 -4 -131 -18q-92 -33 -151 -125q-56 -87 -60 -193z" />
<glyph unicode="g" horiz-adv-x="792" d="M96 436q16 106 74 180q59 80 156 121q92 39 206 45q34 3 72 3q48 0 101 -5l-78 -141q-39 4 -88 4q-23 0 -86 -14q-78 -12 -142 -70q-61 -55 -71 -133q-6 -37 -6.5 -86t22.5 -82q94 -111 215 -188q19 -5 49 -5q40 0 105 9l43 -115q14 -18 2 -20q-4 0 -12.5 -3.5 t-14.5 -5.5q-16 -4 -12 -12q33 -45 47 -102q12 -47 12 -113v-113v-21q0 -211 -119 -298q-62 -40 -136 -40q-10 0 -19 1q-90 6 -150 59q-131 140 -131 406v12q6 240 144 328q-6 4 -48 41q-43 37 -57 51q-6 6 -35 47q-25 35 -33 64q-16 55 -16 116q0 38 6 80zM289 -205 q-12 -63 -12 -121q0 -137 65 -249q16 -37 61 -48q16 -3 31 -3q28 0 49 12q16 12 23 20q14 20 18 27q6 14 11 30l6 31q0 12 4 33q2 10 2 33q0 35 2 65q1 14 1 29q0 10 -0.5 24.5t-0.5 20.5q0 27 -6 63q-6 39 -23 68l-26 33q-10 12 -31 33q-12 14 -35 22q-12 5 -27 5l-16 -1 q-20 0 -39 -12q-10 -8 -27 -35q-12 -22 -18 -37t-12 -43z" />
<glyph unicode="h" horiz-adv-x="423" d="M90 551q3 432 3 464q0 60 -1 85v21q0 239 137 335q68 53 205 66q61 4 105 4q20 0 86 -4l-11 -142q-51 3 -92.5 3t-75.5 -3q-92 -9 -129 -37h-2l-2 -2q-78 -58 -78 -214q0 -11 1 -23q0 -252 -3 -557q-1 -200 -1 -316q0 -182 4 -233l-142 -6q-5 81 -5 339q0 100 1 220z" />
<glyph unicode="i" horiz-adv-x="538" d="M201 821h137l4 -817h-139z" />
<glyph unicode="j" horiz-adv-x="927" d="M59 729q99 31 188 31q111 0 206 -49l2 -2q92 -51 125 -162q20 -66 19 -132q0 -26 -3 -53q-20 -238 -160 -544l101 92q170 143 288 207l43 -115q-4 3 -10 3q-29 0 -119 -64q-84 -59 -229 -195q-127 -119 -236 -256q-117 -150 -141 -238q-2 -6 -8 -6t-6 2l-45 119l24 62 q16 41 31 69q20 41 25 53v3q18 43 63 135l68 139q31 66 57 131q39 94 53 141q8 23 35 133q14 61 23 142v2q3 26 3 49q0 43 -12 78q-18 57 -59 80q-61 33 -137 32q-78 0 -146 -22z" />
<glyph unicode="k" horiz-adv-x="813" d="M104 784q41 147 119 209q56 37 134 37q79 0 180 -39l-2 506h139l2 -758q-6 4 -51 37q-6 4 -29 21.5t-33 23.5q-28 18 -55 31q-8 2 -19.5 7l-18.5 8t-13 5q-31 10 -51 15q-39 8 -56 6q-29 -4 -51 -14q-39 -51 -57 -121q-13 -53 -14 -106q0 -81 32 -165q51 -137 160 -241 q16 -18 43 -39q29 -23 47 -31q6 -2 23.5 -12t27.5 -14l53 -21q27 -8 55.5 -18.5t55.5 -18.5l-47 -131q-88 29 -195 76q-84 37 -145 96q-139 127 -207 303q-42 108 -42 218q0 65 15 130z" />
<glyph unicode="l" horiz-adv-x="948" d="M10 -6l15 141q51 -6 161 -14q45 0 80 -2t84 -2t78 4q57 8 82 16q27 6 49 31q18 23 23 55q1 14 1 26q0 61 -26 77q-2 0 -8 1t-19.5 3l-27.5 4l-44 5t-32 3q-88 8 -166 8l2 144q83 0 141 12q47 10 89 12q37 2 84 22.5t73 49.5q29 31 51 74q16 29 41 108l29 86l131 -51 q4 -1 4 -6q0 -7 -8 -17q-18 -59 -29 -88q-10 -33 -30 -78q-20 -49 -47 -83q-23 -31 -60 -62q-2 -4 -18 -16q-4 -4 -12.5 -9.5t-10.5 -5.5q-16 -10 -18 -14q-6 -8 6 -16q48 -66 48 -161q0 -11 -1 -24q-6 -106 -78 -172q-90 -76 -266 -82q-207 1 -371 21z" />
<glyph unicode="m" horiz-adv-x="847" d="M90 -92q-1 33 -1 56q0 78 9 83q10 6 47 2q41 -4 48 -2q66 303 213 518q154 224 325 228q16 0 45 -5l-24 -137q-9 2 -19 2q-64 0 -137 -73q-178 -188 -260 -535q143 -10 233 -49q117 -55 179 -178q56 -112 55 -230v-24v-15q0 -92 -35 -174q-39 -90 -119 -125 q-55 -20 -111 -20q-44 0 -89 12q-102 27 -173 109q-116 147 -116 406q0 47 4 98q3 22 0 30l-4 11zM309 -94q-9 -79 -9 -147q0 -144 40 -242q18 -55 66 -97q43 -37 104 -47q16 -4 31 -4q28 0 57 15q41 20 51 67q15 50 15 111q0 34 -5 69q-12 96 -63 166q-18 29 -57 53 q-41 25 -74 33q-59 12 -76 15q-6 0 -20.5 2l-30 4t-29.5 2z" />
<glyph unicode="n" horiz-adv-x="931" d="M90 737l57 121q2 0 30 -8t73 -23q92 -31 125 -43q66 -25 96 -39q55 25 160 68l139 57l74 -114q-90 -39 -123 -51l-109 -46q84 -68 119 -145q33 -86 33 -170q0 -42 -8 -86q-12 -76 -63.5 -139.5t-131.5 -87.5q-34 -8 -71.5 -8.5t-79.5 8.5q-72 14 -134 59q-80 61 -106 152 q-14 47 -14 95q0 44 12 89q23 137 158 233l-127 43zM317 276q12 -49 55.5 -85.5t98.5 -36.5q7 -1 13 -1q49 0 83 42q40 53 41 139q0 37 -8 82q-12 100 -129 174q-104 -65 -135 -135q-26 -68 -26 -123q-1 -30 7 -56z" />
<glyph unicode="o" horiz-adv-x="735" d="M90 817q26 3 52 3q90 0 173 -34q111 -43 185 -139q147 -187 147 -549q0 -59 -4 -123l-135 9q4 59 4 113q0 312 -121 464q-97 122 -253 123q-17 0 -36 -2z" />
<glyph unicode="p" horiz-adv-x="811" d="M90 942q2 115 31 223q6 15 18 56t21 59l20 53q10 27 29 56q10 16 35 45q67 78 187 78q9 0 18 -1q94 0 153 -41q89 -50 89 -187q0 -13 -1 -28q3 -117 4 -317q0 -127 -2 -307q-2 -317 -2 -408q0 -133 2 -215l-141 -4q-3 95 -3 278q0 116 1 289q3 374 3 450q0 73 -1 120 q-4 41 -4 90q0 68 -2 86q-2 12 -10 24q-2 4 -19 15q-10 8 -22 10q-8 2 -27 2h-27q-18 0 -26 -2h-25q-20 -10 -39 -27q-20 -20 -28 -39l-19 -43q-14 -39 -16 -45q-25 -55 -37 -118q-10 -57 -14 -123q-2 -39 -3 -125q0 -45 5 -123l-142 -6q-7 74 -7 164q0 30 1 61z" />
<glyph unicode="r" horiz-adv-x="724" d="M59 788q72 14 154 15q78 0 141 -15q92 -18 162 -67q74 -51 100 -121q51 -106 52 -205v-12q0 -90 -47.5 -174t-128.5 -133q-86 -55 -199 -78q-63 -12 -123 -12q-49 0 -96 8l28 127q33 -6 68 -6q78 0 162 28q98 37 143 97q29 41 39 98q5 28 5 53t-5 51q-10 57 -33 103 q-20 68 -84 94q-77 35 -183 35q-58 0 -126 -10z" />
<glyph unicode="s" horiz-adv-x="630" d="M59 59q27 8 78 19q37 6 66 16q55 18 73 51q37 74 37 166q0 86 -34 172q-49 86 -52 90l-43 86q-31 61 -45 105q-10 31 -24 98q-12 59 -13 115q0 90 35 182q34 89 92 160q61 74 129 127t154 94l59 -127q-135 -66 -231 -184.5t-96 -251.5q0 -61 26.5 -147.5t51.5 -133.5 l81 -147l3 -2l2 -4q49 -113 49 -231.5t-56 -231.5q-49 -88 -155 -121q-49 -14 -80 -20q-20 -4 -43 -10l-23 -5z" />
<glyph unicode="t" horiz-adv-x="415" d="M121 23v1503l145 -37v-1501z" />
<glyph unicode="u" horiz-adv-x="735" d="M125 -16q0 453 143 663q74 109 187 139q106 31 223 31v-135q-203 0 -301 -121q-117 -138 -117 -577h-135z" />
<glyph unicode="v" horiz-adv-x="1005" d="M90 78l45 4q12 303 90 543q23 70 76 104q57 37 125 47q10 2 33 2q59 0 112 -28q51 -27 76 -82q41 -92 53 -187q4 -29 4 -60q0 -65 -16 -142q-20 -100 -86 -179q-102 -127 -328 -151q0 -90 2 -133q0 -10 2.5 -29.5t3.5 -35t1 -27.5q4 -57 8 -89q2 -16 7 -44.5l7 -39.5 q4 -23 21 -77q12 -43 30 -72q8 -12 27 -20q16 -4 49 2q27 8 74 55q57 57 100 129q127 211 170 516l142 -18q-47 -332 -191 -572q-66 -111 -127 -168q-66 -61 -133 -80q-35 -9 -67 -9q-29 0 -56 7q-71 22 -111 86q-40 71 -61 160q-25 100 -27 162q-2 29 -7 88t-5 67v3v2 q-2 39 -2 127q-18 -2 -33 -2zM279 96q156 25 215 94q57 70 63 199q1 14 1 29q0 108 -40 192q-12 27 -59 27q-2 0 -7.5 -1t-9.5 -1q-29 -2 -53 -19q-23 -14 -29 -34q-65 -205 -81 -486z" />
<glyph unicode="w" horiz-adv-x="825" d="M10 -596q12 18 90 180l168 350l185 390l157 323q66 131 72 127l76 -149q-63 -147 -332 -703q-307 -633 -332 -680z" />
<glyph unicode="x" horiz-adv-x="1198" d="M90 4l154 152l155 149l-221 395q18 12 60 35l61 33l102 -180l101 -182l182 176l182 174l37 -37l35 -37l-94 -92l-193 -187l-94 -94l139 -248l275 -495l139 -248l-59 -35l-62 -35l-266 482l-270 479l-291 -281z" />
<glyph unicode="y" horiz-adv-x="681" d="M90 784q23 2 60 2t88 -2q0 23 1 111t1 153.5t1 152.5t1 108q16 53 47 88q33 37 76 57q86 33 219 39q59 0 110 -23q49 -23 78 -65q31 -46 31 -105v-2q-8 -143 -35 -249q-47 -186 -168 -293q-96 -84 -238 -97q0 -96 -6 -317l-5 -205t-3 -137l-127 2q0 18 3 137l5 205 q6 221 7 311q-70 2 -140 2zM365 786q90 12 149 66q92 82 127 215q27 98 35 236q-4 37 -27 49q-29 14 -67 14q-94 -2 -166 -27q-18 -8 -30.5 -20t-18.5 -37q1 -60 0 -133q1 -99 -2 -363z" />
<glyph unicode="z" horiz-adv-x="876" d="M90 754q12 16 66 16h19h16.5t11.5 1t7 1h3h23h10q96 0 190 -51t131 -148q23 -51 23 -110q0 -72 -33 -156q-20 -63 -65 -147q-23 -41 -86 -140q-53 -80 -84 -139q-43 -80 -62 -151q-6 -25 -16 -105q-2 -16 -3 -35q0 -26 5 -67q6 -57 30 -101q12 -22 37 -24t45 6 q10 4 37 27q121 125 189 274q31 76 57 205q18 88 39 209l137 -25q-29 -166 -43 -227q-45 -229 -141 -367l-70 -94q-27 -39 -78 -84q-45 -39 -100 -55q-31 -12 -64 -12q-26 0 -53 8q-59 18 -96 63q-72 96 -72 246q0 81 21 178q18 84 61 168q47 94 88 152q39 55 92 153 q53 100 72 162q14 33 15 67q0 18 -5 37q-12 53 -53 93q-29 23 -65.5 35t-71.5 12h-78q-6 0 -74 -6z" />
<glyph unicode="{" horiz-adv-x="747" d="M102 633q117 31 179 92q59 59 59 137q0 51 -2 70q-2 10 -5 27.5t-3 25.5q-2 12 -11 43q-8 29 -10 43q0 2 -3 21.5l-5 31.5q-2 20 -2 70q0 66 23 127q25 66 63 111q47 53 102 92q57 41 136 75l26 -47q-40 -25 -74 -55q-31 -29 -57 -67q-20 -31 -39 -82q-14 -41 -14 -97 q0 -57 6 -94q2 -14 7 -36.5t7 -33t7.5 -33t7.5 -36.5q6 -37 6 -94q0 -43 -12 -84q-10 -35 -35 -76q-18 -31 -58 -64q-37 -31 -75 -47q45 -8 84 -32q37 -25 57 -56q18 -29 28.5 -80t10.5 -100q0 -59 -6 -102q-2 -16 -7.5 -43t-7.5 -35q-2 -12 -7 -38t-7 -38q-6 -37 -6 -86 q0 -41 8 -98q6 -37 27 -76q16 -31 53 -63.5t86 -59.5l-23 -61q-80 33 -145 71q-53 33 -98 84q-37 41 -56 103q-18 58 -18 129q0 58 6 98q2 14 7 38.5t7.5 35t7.5 36t7 39.5q6 41 6 103q0 78 -41 123q-39 41 -115 41h-20h-12q-2 0 -5.5 -1t-5.5 -1t-22 -4zM174 805l176 -39z " />
<glyph unicode="|" horiz-adv-x="468" d="M180 -383v2005q18 12 51 29q4 2 54 18l34 -20v-2001q-18 -15 -49 -31l-55 -23z" />
<glyph unicode="}" horiz-adv-x="686" d="M39 -266q33 20 72 55q37 33 59 68q20 31 39 82q14 41 14 96q0 57 -6 94q-2 14 -7 36.5t-7 33.5q-8 45 -13 69q-6 37 -6 97q0 41 13 81q14 45 34 74q31 41 58 64q37 31 76 47q-47 8 -86 33q-31 20 -56 57q-22 34 -30 80q-8 41 -8.5 100.5t5.5 102.5q4 29 13 77q2 12 7 37 t7 37q6 37 6 86q0 43 -8 100q-6 39 -27 78q-18 33 -53 62q-41 33 -86 57l23 61q92 -37 145 -69q59 -37 98 -84q37 -45 56 -103q18 -55 18 -129q0 -58 -6 -98q-2 -14 -7 -38.5t-7 -35.5q-8 -49 -13 -75q-6 -41 -6 -103q0 -78 41 -123q39 -41 115 -41h18h13q2 0 6 1t6 1 q8 2 22 5l17 -56q-120 -31 -178 -92q-59 -63 -60 -137q0 -51 2 -70q2 -10 5 -28.5t3 -22.5q4 -29 9 -43q8 -31 10 -43q2 -16 6 -53t4 -70q0 -66 -22 -127q-20 -55 -66 -110q-43 -51 -100 -93q-66 -45 -135 -77z" />
<glyph unicode="~" horiz-adv-x="997" d="M49 502q27 61 53 102q41 63 72 96q41 43 84 70q47 29 94 29q45 0 94 -25q53 -27 97 -55q46 -31 92 -55.5t86 -24.5q49 0 90 39q45 41 86 121l53 -25q-20 -47 -53 -102q-31 -51 -72 -97q-41 -43 -84 -69q-47 -29 -94 -29q-45 0 -90 25q-39 20 -94 55q-43 27 -96 55 q-47 25 -91 25q-49 0 -90 -39q-39 -37 -84 -123z" />
<glyph horiz-adv-x="88" />
<glyph unicode="&#xaa;" horiz-adv-x="720" d="M45 -25q26 -3 52 -2q90 0 173 33q111 43 185 139q147 187 147 550q0 59 -4 122l-135 -8q4 -59 3 -114q0 -314 -120 -466q-95 -119 -246 -119q-21 0 -43 3z" />
<glyph unicode="&#xab;" horiz-adv-x="1431" d="M115 559l506 492l8 -88l-264 -404l264 -399l-4 -84zM618 559l515 498v-94l-267 -404l267 -399v-94z" />
<glyph unicode="&#xac;" horiz-adv-x="2048" d="M145 469v211h967v-530h-244v319h-723z" />
<glyph unicode="&#xad;" horiz-adv-x="688" d="M61 479q0 2 4.5 18.5t8.5 26.5q6 16 18 45h512l25 -24q-10 -37 -15 -47q-16 -41 -16 -43h-512z" />
<glyph unicode="&#xb1;" horiz-adv-x="839" d="M66 551q4 29 12 53q6 16 18 45h266v238q4 2 12.5 4t15.5 5t16 5q10 4 47 14l24 -22v-244h275l22 -24q0 -2 -4 -18.5t-8 -26.5q-16 -41 -17 -43h-268v-236q-29 -12 -45 -18q-10 -4 -26.5 -8.5t-18.5 -4.5l-25 23v244h-272zM84 123q10 37 14 47q14 39 17 43h630l25 -25 q-10 -37 -14 -47q-14 -41 -17 -43h-630z" />
<glyph unicode="&#xb2;" d="M98 74l207 243l152 189q68 88 104 143q49 76 66 109q23 47 32 88q8 35 9 78q0 53 -11 86q-12 43 -34 69q-25 31 -64 45q-43 16 -92 17q-41 0 -76 -19q-33 -18 -57 -49q-29 -35 -39 -67q-14 -43 -14 -72q-27 -12 -31 -16q-10 -8 -27 -15l-10 -5t-11 -5t-9 -2q-4 -2 -41 -6 l-27 30q0 51 35 109q33 53 94 102.5t131 77.5q74 31 150 31q66 0 112 -16q55 -18 92 -52q35 -31 60 -88q23 -55 22 -127q0 -43 -12 -90q-10 -43 -41 -98q-33 -61 -70 -115q-35 -49 -106 -139l-143 -172l-183 -217h418q27 0 45 18q16 16 31 45q8 18 16 52q2 12 8 45l2 18 l50 -12l-15 -287h-694z" />
<glyph unicode="&#xb3;" d="M68 119l34 67q63 -47 82 -57q39 -23 72 -35q25 -8 66 -16q35 -6 71 -6q61 0 110.5 18.5t86.5 54.5q33 33 55 88q20 49 21 115q0 80 -23 127q-25 52 -61 86q-35 31 -82 47q-43 14 -90 15h-21h-12q-2 0 -6 -1t-6.5 -1t-22.5 -5l-14 60q94 25 147 57.5t84 69.5t39 71 q10 41 10 66q0 29 -10 70q-8 35 -33 65q-20 27 -57 47q-33 18 -82 19q-41 0 -72 -13q-27 -10 -53 -36q-18 -18 -29 -54q-8 -29 -2 -65q-29 -16 -65 -27q-31 -9 -74 -12l-27 31q0 43 31 90q35 51 82 88q45 35 121 65q66 27 145 27q78 0 129 -25q57 -27 88 -63q35 -41 50 -88 q16 -53 16 -101q0 -41 -14 -75q-16 -39 -43 -72q-31 -37 -66 -61q-49 -35 -88 -52q55 -6 106.5 -34.5t86 -69.5t57.5 -98q20 -53 20 -115q0 -88 -26 -160q-29 -78 -80 -131q-49 -51 -131 -88q-74 -33 -182 -33q-27 0 -80 8q-41 6 -84 25q-47 20 -86 45q-37 23 -88 72z" />
<glyph unicode="&#xb9;" d="M139 1075q41 12 99 33q78 29 116 45q78 33 113 49q52 25 86 43l37 -35v-1067q0 -12 10 -22t39 -23q27 -12 78 -24q41 -10 123 -21v-53h-670v53q86 10 129 21q68 16 84 22q31 12 43 25q14 14 14 22v797q0 33 -4 61q-4 23 -14 37q-8 8 -23 11q-12 2 -49 2q-31 0 -78 -7 q-61 -8 -112 -20z" />
<glyph unicode="&#xba;" horiz-adv-x="735" d="M90 817q26 3 52 3q90 0 173 -34q111 -43 185 -139q147 -187 147 -549q0 -59 -4 -123l-135 9q4 59 4 113q0 312 -121 464q-97 122 -253 123q-17 0 -36 -2z" />
<glyph unicode="&#xbb;" horiz-adv-x="1431" d="M115 45l514 496l-514 495v-94l266 -401l-266 -402v-94zM618 139l5 -84l510 486l-506 489l-9 -88l265 -401z" />
<glyph unicode="&#xc0;" horiz-adv-x="825" d="M10 -596l84 -162q41 74 182 369q121 250 181 389h-150l-184 -381q-99 -195 -113 -215z" />
<glyph unicode="&#xc1;" horiz-adv-x="4" d="M0 16v9h6v-9h-6z" />
<glyph unicode="&#xc2;" horiz-adv-x="811" d="M94 1061q0 37 27 104q6 15 18 56t21 59l20 53q10 27 29 56q10 16 35 45q68 78 205 77q86 0 153 -41q80 -47 88 -215q14 -248 0 -409q-6 -100 4 -146h-149v111q9 224 6 313q-2 59 -2 107q0 66 -4 86q0 10 -10 24q-2 4 -19 15q-10 8 -22 10q-8 2 -27 2h-27q-18 0 -26 -2 h-25q-20 -10 -39 -27q-18 -18 -28 -36q-12 -25 -21 -46l-14 -45q-10 -8 -30.5 -77.5t-20.5 -83.5q0 -72 -7 -86q-2 -4 -24 -60l-105 49q-6 50 -6 107z" />
<glyph unicode="&#xc3;" horiz-adv-x="856" d="M-217 996q27 61 53 102q41 63 72 96q41 43 84 70q47 29 94 29q45 0 94 -25q53 -27 97 -55q46 -31 92 -55.5t86 -24.5q49 0 90 39q45 41 86 121l53 -25q-20 -47 -53 -102q-31 -51 -72 -97q-41 -43 -84 -69q-47 -29 -94 -29q-45 0 -90 25q-39 20 -94 55q-43 27 -96 55 q-47 25 -91 25q-49 0 -90 -39q-39 -37 -84 -123zM59 596q0 8 8.5 16.5t18.5 10.5q16 4 27 4q6 0 26 4q10 2 23 6q16 -12 28 -37q8 -16 29 -47q12 -18 23 -4q0 8 -1 16q0 85 31 133q47 76 177 101q11 2 22 1q47 0 102 -30q59 -31 91 -88q22 -43 21 -122q0 -19 -1 -40 q-2 -88 -63 -149q-47 -45 -127 -60q-38 -8 -75 -7.5t-69 7.5q-4 -17 -3 -34q0 -41 20 -82q27 -51 84 -84q51 -29 88 -39q46 -12 98 -13q49 0 92 19q18 23 28.5 8.5t10.5 -39.5q0 -33 -2 -43q-47 -47 -127 -63q-29 -5 -56 -5q-45 0 -87 13q-102 33 -172 100q-76 70 -99 162 q-3 15 -6 86q-2 55 -6 84q-111 98 -143 188q-11 15 -11 27zM334 573q-10 -22 -10 -44q0 -27 14 -54q25 -49 76 -61q33 -12 65 -13q37 0 64 17q29 16 41 51q17 24 17 58q0 6 -1 12q-2 35 -20 69q-16 31 -48 54q-27 19 -58 18h-9q-45 -4 -78 -33q-35 -33 -53 -74z" />
<glyph unicode="&#xc4;" horiz-adv-x="1503" d="M90 682l113 20q2 -6 9 -23t11 -28q14 -31 31 -53q20 -27 29 -25q37 123 79 168q55 59 138 68q53 6 112 -21q53 -25 86 -75q43 -53 45 -127q4 -76 -28 -137q-35 -66 -97 -97q-43 -22 -104 -24q-57 -2 -106 10q-4 -102 75 -154q70 -45 156 -63q68 -14 182 -21q76 -2 221 29 q49 12 99 43q47 31 80 72q31 39 51 90q20 49 26 112q6 59 -18 111q-23 53 -119 94q-68 28 -184 37q-27 0 -51 -2q-37 -3 -37 -2l-4 113q0 10 28 12q20 2 58 2q72 -4 108 -8q68 -10 111 -25q45 -16 86 -43q55 -37 78 -71q80 -123 55 -261q-16 -88 -39 -147q-10 -25 -37 -63 q-29 -43 -45 -60q-2 -2 -7 -6t-9 -8l-21 -21q-16 -12 -28 -20l-39 -25q-6 -4 -49 -22q-23 -10 -62 -21q-156 -47 -418 -16q-176 23 -241 88q-106 104 -150 338q-139 125 -174 262zM385 583.5q-16 -65.5 2 -98.5q16 -27 65.5 -45t102.5 -10q41 6 66 53q23 43 22 103 q0 53 -27 86q-43 47 -98 47t-88 -37q-29 -33 -45 -98.5z" />
<glyph unicode="&#xc8;" horiz-adv-x="815" d="M150 -672l18 672h137l-6 -424q0 -10 8 -16q12 -6 21 6l348 463l96 -74l-485 -674q-33 -45 -82 -31q-57 19 -55 78z" />
<glyph unicode="&#xc9;" horiz-adv-x="4" d="M0 16v9h6v-9h-6z" />
<glyph unicode="&#xca;" horiz-adv-x="415" d="M121 692v834l145 -37l2 -809z" />
<glyph unicode="&#xcb;" horiz-adv-x="1820" d="M10 29l547 798q104 29 143 -34l-10 -643q16 8 113 294q33 96 135 199q86 88 170 113q133 37 231 18q57 -14 123 -35q114 -34 172 -92q80 -76 101 -168q33 -135 -39 -252q-33 -53 -72 -100q-39 -45 -80 -66q-121 -55 -149 -63q-39 -6 -95 -4h-90l-28 131h69h86q33 0 70 10 q8 2 14 4t8.5 4t0 4.5t3 6.5t19.5 10q25 10 43 26q115 92 125 170q6 74 -25 129q-18 31 -90 91q-51 43 -96 55q-49 16 -158 12l-127 -22q-25 0 -127 -97q-23 -23 -98 -204l-164 -365l-155 41l-17 539l-41 12l-391 -600z" />
<glyph unicode="&#xcc;" horiz-adv-x="876" d="M121 -250q-61 -274 51 -424q33 -45 96 -63q59 -16 117 4q57 18 100 55q51 45 78 84q8 12 70 94q94 123 141 367q28 138 43 227l-137 25q-10 -57 -41 -209q-25 -135 -55 -205q-66 -158 -189 -274q-27 -23 -37 -27q-20 -8 -45 -6q-25 3 -37 24q-25 41 -30 101q-6 66 -2 100 q8 74 16 107l43 139l41 131h-143q-35 -41 -80 -250z" />
<glyph unicode="&#xcd;" horiz-adv-x="4" d="M0 16v9h6v-9h-6z" />
<glyph unicode="&#xce;" horiz-adv-x="423" d="M80 684q10 35 6 391q0 86 2 129q6 151 141 252q74 53 205 66q61 4 105 4q20 0 86 -4l-11 -142q-100 6 -167.5 0t-129.5 -37h-2l-2 -2q-84 -84 -86 -112l-8 -129v-420z" />
<glyph unicode="&#xcf;" horiz-adv-x="1574" d="M59 -37l66 160l72 29q20 10 39 18l47 23l26.5 18t28.5 18q33 20 51 43q27 29 35 56q-111 23 -186 92q-68 61 -76 151q-12 104 51 181q29 37 70 61q47 27 88 35q80 12 151 -27q86 -45 133 -119q65 -98 31 -196q90 262 354 299q117 18 197 -23q104 -51 139 -94 q66 -76 97 -160q22 -52 12 -172q-3 -43 -43 -141q-16 -39 -82 -111q-49 -55 -209 -92q-66 -16 -248 -41l25 138q100 -4 192 18q131 31 189 88q43 45 61.5 119t1.5 141q-16 61 -72 133q-49 66 -126.5 90.5t-212.5 -26.5q-72 -29 -125 -109q-74 -115 -103 -139 q-51 -49 -82 -68q-14 -12 -53 -34q-41 -25 -47 -46q-6 -18 -6 -20q-14 -45 -76 -102q-55 -53 -125 -95q-22 -15 -92 -49q-29 -14 -88.5 -30.5t-104.5 -16.5zM289 604q4 -49 33 -84q33 -39 69 -59q39 -20 82 -20.5t68 30.5q27 33 20 72q-6 43 -33 78q-25 33 -65 63 q-43 33 -78 35q-41 4 -70 -19q-30 -47 -26 -96z" />
<glyph unicode="&#xd1;" horiz-adv-x="724" d="M59 788q72 14 154 15q78 0 141 -15q92 -18 162 -67q74 -51 100 -121q55 -113 52 -217q0 -90 -47.5 -174t-128.5 -133q-86 -55 -199 -78q-115 -23 -219 -4l28 127q106 -18 230 22q98 37 143 97q29 41 39 98q8 53 0 104q-10 57 -33 103q-20 68 -84 94q-117 53 -309 25z M256 1087q0 47 35 82t84 35q47 0 82 -34.5t35 -82.5q0 -49 -35 -83q-33 -33 -82 -33q-51 0 -84 33q-35 34 -35 83z" />
<glyph unicode="&#xd2;" horiz-adv-x="856" d="M227 1143q4 51 37 83q29 33 80 46q49 12 96 -6.5t70 -59.5q29 -41 23 -100q-6 -51 -41 -88t-82 -48q-43 -8 -93 15q-43 23 -67 63q-27 46 -23 95zM61 426q-2 18 -1 37q0 109 63 209q74 117 196 174l58 -121q-68 -33 -119 -96q-65 -77 -65 -171q0 -22 4 -44 q12 -96 49 -162q41 -74 106 -111q36 -14 74 -14q35 0 72 12q74 25 116 90q50 85 50 192q0 40 -7 83q-12 72 -45 125q-34 55 -92 73q-29 8 -28 23v115q0 6 10 6t18 -2q2 0 27 -10q14 -6 20 -7q84 -29 146 -112q57 -78 75 -178q10 -46 10 -97.5t-10 -111.5q-18 -111 -75 -193 q-72 -102 -199 -133q-44 -11 -86 -11q-80 0 -152 40q-96 57 -151 164q-54 104 -64 231z" />
<glyph unicode="&#xd3;" horiz-adv-x="4" d="M0 16v9h6v-9h-6z" />
<glyph unicode="&#xd4;" horiz-adv-x="681" d="M80 944l6 107l150 -7q4 45 4 91q-4 115 2 174q2 37 47 90q31 37 76 55q88 33 149 37q59 6 125 -51l86 -74l25 -72l16 -39l-16 -75q-18 -90 -68 -150q-55 -63 -113 -69l-209 -21q4 -6 0 -166v-90h-100q-16 12 -14 107q0 47 -10 149zM354 1051l111 -7l94 31q33 12 55 84 q20 78 21 80q4 41 -39 86q-37 41 -55 41q-72 6 -125 -27q-27 -20 -31 -20q-18 -18 -18 -37q-1 -211 -13 -231z" />
<glyph unicode="&#xd5;" horiz-adv-x="794" d="M45 821l53 -125q6 -2 43 -2q31 0 45 -6q23 0 33 -8q12 -8 19 -23q2 -6 5 -9t6 -8t7 -13q20 -53 37 -115q31 -117 37 -145q20 -98 26 -115q4 -31 23 -86q16 -51 37 -78q92 -115 289 -102v137q-16 4 -50 4q-31 0 -55 8q-76 23 -84 64q-18 61 -49 202q-23 102 -55 211 l-23 62q-12 35 -26.5 59.5t-40.5 50.5q-66 51 -195 54q-45 -1 -82 -17zM279 1090q0 47 34.5 81.5t81.5 34.5q49 0 84 -35q33 -33 33 -81q0 -51 -33 -84t-84 -33q-49 0 -82 33q-34 35 -34 84z" />
<glyph unicode="&#xd6;" horiz-adv-x="1568" d="M-629 1645zM12 -37q-18 18 23 109q63 135 145 295l125 192l109 100l233 84q203 59 348 54q166 -9 252 -49q94 -45 148 -111q55 -66 75 -154q18 -78 9 -131q-27 -115 -31 -135q-12 -43 -78 -113q-52 -55 -215 -92l-178 -41l22 138q55 -6 127 18q49 18 68 27q35 14 57 32 q14 14 27.5 25.5l19.5 16.5l7 5q43 23 61 140l-23 147q-45 68 -188 131q-86 41 -156 37q-262 -12 -309 -51q109 -4 133 -168q14 -94 -30 -139q-51 -51 -72 -76q-47 -55 -168 -49q-92 6 -121 24q-35 18 -106 101q-59 -8 -113 -129q-76 -168 -78 -213q-25 -10 -67 -17 q-54 -8 -56 -8zM422 424q4 -20 55 -82q61 -72 121 -49q66 25 84 49q8 10 31 74q16 45 -21 106q-45 76 -110 76q-80 0 -103 -20q-25 -22 -49 -74q-14 -33 -8 -80z" />
<glyph unicode="&#xd9;" horiz-adv-x="880" d="M155 1143q4 51 37 83q29 33 80 46q49 12 96 -6.5t70 -59.5q29 -41 23 -100q-6 -51 -41 -88t-82 -48q-43 -8 -93 15q-43 23 -67 63q-27 46 -23 95zM90 -47l123 2q0 174 63 387q72 223 177 322q61 -55 118 -211q78 -227 99 -510l123 12q-18 258 -78 465q-29 102 -80 213 q-41 88 -113 149q-27 27 -55 33q-10 2 -19 2l-42 -12q-127 -100 -213 -320q-103 -272 -103 -532z" />
<glyph unicode="&#xda;" horiz-adv-x="4" d="M0 16v9h6v-9h-6z" />
<glyph unicode="&#xdb;" horiz-adv-x="1363" d="M90 690l10 96q-6 35 15 41q22 6 49 0q29 -6 53 7v368v82q-4 61 6 102q10 47 35 74q10 14 37 27q23 10 33 12l49 4q25 2 39 2q20 0 53 -4q61 -2 119 -41q55 -37 86 -96q61 -102 49 -225q-12 -125 -90 -209q-137 -150 -277 -205q0 -287 -2 -391q83 184 301 375 q86 86 215 86q131 0 215 -84q61 -68 95 -158q29 -80 53 -213q2 -29 22 -154q16 -106 21 -176l-78 -2q-2 0 -8 -1t-10 -1h-21q-10 0 -16 2q-10 4 -10 10q0 12 2 23q-8 47 -22.5 161.5t-35.5 205.5q-18 80 -55 153q-25 66 -100.5 88.5t-133.5 -14.5q-166 -123 -276 -299 l-55 -107q-25 -47 -64 -127q-35 -72 -49 -110l-133 22q6 258 6 645q4 29 -20 31q-27 4 -54 -2q-33 -6 -53 2zM356 930q-8 -41 9 -41q10 0 61 39q4 2 6 4l4 4q172 129 148 266q-6 66 -56 121q-47 53 -114 43q-14 0 -56 -4q0 -35 -1 -178t-1 -254z" />
<glyph unicode="&#xdc;" horiz-adv-x="1824" d="M31 -47q0 281 102 532q96 236 158 285q78 63 117 45q61 -25 77 -41q33 -33 90 -104q6 -8 46 -129q92 -297 84 -367q0 18 79 270q25 82 136 199q82 88 176 113q88 23 186 16q53 -2 180 -33q104 -25 172 -92q76 -74 101 -168q33 -125 -4 -219q-18 -49 -70 -115 q-43 -53 -96 -86l-115 -59q-82 -25 -150 -25h-90l-28 131h69q80 -2 84 3q4 2 72 8q78 6 164 129q31 45 39 133q6 70 -35 143q-25 47 -88 82q-92 49 -121 39q-39 2 -115 4l-112 -10q0 -10 -105 -74q-104 -65 -153 -239l-146 -365l-125 -16q-20 272 -98 510q-45 139 -123 182 q-117 -74 -172 -293q-61 -256 -61 -387z" />
<glyph unicode="&#xdd;" horiz-adv-x="4" d="M0 16v9h6v-9h-6z" />
<glyph unicode="&#xe0;" horiz-adv-x="735" d="M125 -16q0 453 143 663q74 109 187 139q106 31 223 31v-135q-203 0 -301 -121q-117 -138 -117 -577h-135z" />
<glyph unicode="&#xe1;" horiz-adv-x="4" d="M0 16v9h6v-9h-6z" />
<glyph unicode="&#xe2;" horiz-adv-x="724" d="M59 383q0 -123 33 -178q39 -61 144 -129q88 -55 198 -78q115 -23 219 -4l-28 127q-106 -18 -230 22q-150 53 -182 160q-35 109 33 227q41 78 133 121q104 45 215 45l-19 109h-118l-135 -39l-134 -80q-35 -35 -84 -129q-45 -90 -45 -174z" />
<glyph unicode="&#xe3;" horiz-adv-x="720" d="M-57 967q27 61 53 102q41 63 72 96q41 43 84 70q47 29 94 29q45 0 94 -25q53 -27 97 -55q46 -31 92 -55.5t86 -24.5q49 0 90 39q45 41 86 121l53 -25q-20 -47 -53 -102q-31 -51 -72 -97q-41 -43 -84 -69q-47 -29 -94 -29q-45 0 -90 25q-39 20 -94 55q-43 27 -96 55 q-47 25 -91 25q-49 0 -90 -39q-39 -37 -84 -123zM45 -25q26 -3 52 -2q90 0 173 33q111 43 185 139q147 187 147 550q0 59 -4 122l-135 -8q4 -59 3 -114q0 -314 -120 -466q-95 -119 -246 -119q-21 0 -43 3z" />
<glyph unicode="&#xe4;" horiz-adv-x="1386" d="M90 76q133 10 221 82q12 8 31 30q16 20 23 33q12 25 16 39q2 4 6 18.5t6 20.5q0 4 3 18.5t5 22.5l7 43l6 41q25 217 159 299q119 68 261 72q131 0 262 -66q76 -29 127 -106q47 -72 63 -166q10 -55 10 -138q0 -59 -26 -133q-25 -66 -74 -112q-100 -84 -225 -121 q-133 -39 -252 -19l22 138q123 -6 195 18q51 18 68 27q37 18 59 32.5t51 47.5q27 43 37 100q8 45 0 106q-4 43 -27 105q-25 70 -94 94q-166 86 -311 31q-41 -6 -78 -33q-31 -23 -51 -65q-27 -57 -41 -177q-14 -115 -45 -178q-49 -111 -164 -176t-244 -72z" />
<glyph unicode="&#xe8;" horiz-adv-x="735" d="M125 -16q0 453 143 663q74 109 187 139q106 31 223 31v-135q-203 0 -301 -121q-117 -138 -117 -577h-135z" />
<glyph unicode="&#xe9;" horiz-adv-x="4" d="M0 16v9h6v-9h-6z" />
<glyph unicode="&#xea;" horiz-adv-x="724" d="M59 383q0 -123 33 -178q39 -61 144 -129q88 -55 198 -78q115 -23 219 -4l-28 127q-106 -18 -230 22q-150 53 -182 160q-35 109 33 227q41 78 133 121q104 45 215 45l-19 109h-118l-135 -39l-134 -80q-35 -35 -84 -129q-45 -90 -45 -174z" />
<glyph unicode="&#xeb;" horiz-adv-x="538" d="M201 821h137l4 -817h-139z" />
<glyph unicode="&#xec;" horiz-adv-x="735" d="M125 -16q0 453 143 663q74 109 187 139q106 31 223 31v-135q-203 0 -301 -121q-117 -138 -117 -577h-135z" />
<glyph unicode="&#xed;" horiz-adv-x="4" d="M0 16v9h6v-9h-6z" />
<glyph unicode="&#xee;" horiz-adv-x="724" d="M59 383q0 -123 33 -178q39 -61 144 -129q88 -55 198 -78q115 -23 219 -4l-28 127q-106 -18 -230 22q-150 53 -182 160q-35 109 33 227q41 78 133 121q104 45 215 45l-19 109h-118l-135 -39l-134 -80q-35 -35 -84 -129q-45 -90 -45 -174z" />
<glyph unicode="&#xef;" horiz-adv-x="731" d="M92 -4q-6 95 0 184v615h144v-162q106 129 256 155q41 10 126 25l25 -139q-109 -18 -119 -23h-2l-2 -2q-72 -12 -131 -63q-61 -51 -94 -121q-51 -129 -59 -295v-170z" />
<glyph unicode="&#xf1;" horiz-adv-x="931" d="M90 59l57 -120l103 32q92 31 125 43q66 25 96 39q55 -25 160 -67l139 -60l74 117q-90 39 -123 51l-70.5 28.5t-38.5 14.5q84 68 119 148q49 129 25 256q-12 76 -63.5 139t-131.5 88q-68 16 -151 0q-72 -14 -134 -59q-78 -61 -106 -154q-27 -90 -2 -184q23 -135 158 -232 l-127 -43q-47 -14 -73 -24.5t-36 -12.5zM317 520q12 51 55.5 88t98.5 37q57 6 96 -41q57 -76 33 -221q-12 -100 -129 -174q-106 66 -135 133q-41 104 -19 178z" />
<glyph unicode="&#xf2;" horiz-adv-x="735" d="M125 -16q0 453 143 663q74 109 187 139q106 31 223 31v-135q-203 0 -301 -121q-117 -138 -117 -577h-135z" />
<glyph unicode="&#xf3;" horiz-adv-x="4" d="M0 16v9h6v-9h-6z" />
<glyph unicode="&#xf4;" horiz-adv-x="724" d="M59 383q0 -123 33 -178q39 -61 144 -129q88 -55 198 -78q115 -23 219 -4l-28 127q-106 -18 -230 22q-150 53 -182 160q-35 109 33 227q41 78 133 121q104 45 215 45l-19 109h-118l-135 -39l-134 -80q-35 -35 -84 -129q-45 -90 -45 -174z" />
<glyph unicode="&#xf5;" horiz-adv-x="794" d="M45 821l53 -125q6 -2 43 -2q31 0 45 -6q23 0 33 -8q12 -8 19 -23q2 -6 5 -9t6 -8t7 -13q20 -53 37 -115q31 -117 37 -145q20 -98 26 -115q4 -31 23 -86q16 -51 37 -78q84 -104 251 -104q18 0 38 2v137q-16 4 -50 4q-31 0 -55 8q-76 23 -84 64q-18 61 -49 202 q-23 102 -55 211l-23 62q-12 35 -26.5 59.5t-40.5 50.5q-66 51 -195 54q-45 -1 -82 -17z" />
<glyph unicode="&#xf6;" horiz-adv-x="1337" d="M90 805q0 10 23 10h43q94 0 168 -33q77 -34 110 -104q20 -43 47 -160t33 -133q2 -4 4 -13.5t6 -24.5t8.5 -29.5t11.5 -43t11 -36.5q12 -35 27 -60q14 -27 43 -51q20 -18 53 -25q31 -6 51 -6q8 0 57.5 4t53.5 4q102 4 176 66q76 63 92 158q0 16 6 69q6 47 2 86 q-4 41 -16 66q-41 78 -162 115q-37 12 -80 12h-98q-37 -2 -82 -2v127q16 10 53 10h90h23h26q98 -2 193 -53q90 -47 145 -131q27 -39 35 -84q9 -49 6 -92q-4 -57 -4 -95q-2 -127 -88 -233q-84 -106 -209 -137q-145 -35 -291 -9q-123 20 -170 103q-51 92 -98 280 q-41 168 -76 256q-35 80 -207 62z" />
<glyph unicode="&#xf9;" horiz-adv-x="735" d="M125 -16q0 453 143 663q74 109 187 139q106 31 223 31v-135q-203 0 -301 -121q-117 -138 -117 -577h-135z" />
<glyph unicode="&#xfa;" horiz-adv-x="4" d="M0 16v9h6v-9h-6z" />
<glyph unicode="&#xfb;" horiz-adv-x="724" d="M59 383q0 -123 33 -178q39 -61 144 -129q88 -55 198 -78q115 -23 219 -4l-28 127q-106 -18 -230 22q-150 53 -182 160q-35 109 33 227q41 78 133 121q104 45 215 45l-19 109h-118l-135 -39l-134 -80q-35 -35 -84 -129q-45 -90 -45 -174z" />
<glyph unicode="&#xfc;" horiz-adv-x="1216" d="M92 176q-4 90 2 174q6 88 29 170q27 102 94 174q72 76 166 97q123 20 246 20q106 0 209 -33q98 -31 176 -110.5t102 -186.5q37 -139 -39 -252q-33 -53 -71 -100q-31 -37 -78 -63q-88 -51 -209 -66q-16 -4 -94 -4q-27 0 -57.5 1t-32.5 1l-29 129h69q16 0 44 1t40 1 q39 0 70 8q37 8 53 13q33 8 52 16q23 10 45 29q106 96 112 188q6 76 -35 143q-43 71 -110 105q-63 31 -135 39q-76 8 -131 6q-55 -3 -142 -12q-59 -6 -110 -54q-53 -49 -70 -104q-18 -58 -25 -129q-8 -94 -8 -115q0 -12 4 -135q0 -23 1 -52.5t2 -45t1 -23.5l-135 -4 q-4 108 -6 174z" />
<glyph unicode="&#xfd;" horiz-adv-x="884" d="M10 29l584 798q33 9 59 9q57 0 84 -43l-8 -799l-141 6l12 539l-43 12l-426 -600z" />
<glyph unicode="&#xff;" horiz-adv-x="927" d="M59 -37l66 160l72 29q20 10 39 18q39 18 47 23l26.5 18t28.5 18q33 20 51 43q27 29 35 56q-111 23 -186 92q-68 61 -76 151q-12 106 51 181q29 39 70 61q47 27 88 35q80 12 151 -27q92 -49 133 -127q37 -72 19 -188q139 86 180 137l14 -147q-10 -12 -22 -25 q-6 -6 -21 -12q-10 -4 -28 -19q-10 -8 -103 -65q-47 -31 -108 -49q-14 -10 -21 -21q-10 -14 -14 -29q-6 -18 -6 -20q-25 -53 -78 -102q-45 -43 -123 -95q-61 -34 -92 -49q-29 -14 -88.5 -30.5t-104.5 -16.5zM289 604q4 -49 33 -84q33 -39 69 -59q39 -20 82 -20.5t68 30.5 q27 33 20 72q-6 43 -33 78q-25 33 -65 63q-43 33 -78 35q-41 4 -70 -19q-30 -47 -26 -96z" />
<glyph unicode="&#x152;" horiz-adv-x="1742" d="M868 29l584 798q33 9 59 9q57 0 84 -43l-8 -799l-141 6l12 539l-43 12l-426 -600zM61 426q-2 18 -1 37q0 109 63 209q74 117 196 174l58 -121q-68 -33 -119 -96q-65 -77 -65 -171q0 -22 4 -44q12 -96 49 -162q41 -74 106 -111q36 -14 74 -14q35 0 72 12q74 25 116 90 q50 85 50 192q0 40 -7 83q-12 72 -45 125q-34 55 -92 73q-29 8 -28 23v115q0 6 10 6t18 -2q2 0 27 -10q14 -6 20 -7q84 -29 146 -112q57 -78 75 -178q10 -46 10 -97.5t-10 -111.5q-18 -111 -75 -193q-72 -102 -199 -133q-44 -11 -86 -11q-80 0 -152 40q-96 57 -151 164 q-54 104 -64 231z" />
<glyph unicode="&#x153;" horiz-adv-x="1443" d="M831 817l137 -8q-4 -61 -3 -117q0 -313 118 -463q95 -119 248 -119q21 0 43 3l10 -138q-26 -3 -51 -2q-88 0 -172 33q-111 43 -184 139q-149 189 -150 553q0 57 4 119zM90 817q26 3 52 3q90 0 173 -34q111 -43 185 -139q147 -187 147 -549q0 -59 -4 -123l-135 9 q4 59 4 113q0 312 -121 464q-97 122 -253 123q-17 0 -36 -2z" />
<glyph unicode="&#x2c6;" horiz-adv-x="1007" d="M100 592l322 870q16 16 29 25l36 24q31 20 35 23l33 16l352 -915q-33 -29 -49 -39q-27 -16 -57 -31l-37 27l-283 723l-250 -680q-2 -2 -10 -9.5t-14 -11.5t-16.5 -10t-14.5 -10q-25 -14 -29 -16q-14 -8 -24 -13z" />
<glyph unicode="&#x2dc;" horiz-adv-x="749" d="M-656 150q27 61 53 102q41 63 72 96q41 43 84 70q47 29 94 29q45 0 94 -25q53 -27 97 -55q46 -31 92 -55.5t86 -24.5q49 0 90 39q45 41 86 121l53 -25q-20 -47 -53 -102q-31 -51 -72 -97q-41 -43 -84 -69q-47 -29 -94 -29q-45 0 -90 25q-39 20 -94 55q-43 27 -96 55 q-47 25 -91 25q-49 0 -90 -39q-39 -37 -84 -123z" />
<glyph unicode="&#x2000;" horiz-adv-x="833" />
<glyph unicode="&#x2001;" horiz-adv-x="1669" />
<glyph unicode="&#x2002;" horiz-adv-x="833" />
<glyph unicode="&#x2003;" horiz-adv-x="1669" />
<glyph unicode="&#x2004;" horiz-adv-x="555" />
<glyph unicode="&#x2005;" horiz-adv-x="415" />
<glyph unicode="&#x2006;" horiz-adv-x="276" />
<glyph unicode="&#x2007;" horiz-adv-x="276" />
<glyph unicode="&#x2008;" horiz-adv-x="206" />
<glyph unicode="&#x2009;" horiz-adv-x="333" />
<glyph unicode="&#x200a;" horiz-adv-x="90" />
<glyph unicode="&#x2010;" horiz-adv-x="688" d="M61 479q0 2 4.5 18.5t8.5 26.5q6 16 18 45h512l25 -24q-10 -37 -15 -47q-16 -41 -16 -43h-512z" />
<glyph unicode="&#x2011;" horiz-adv-x="688" d="M61 479q0 2 4.5 18.5t8.5 26.5q6 16 18 45h512l25 -24q-10 -37 -15 -47q-16 -41 -16 -43h-512z" />
<glyph unicode="&#x2013;" d="M61 479q0 2 4.5 18.5t8.5 26.5q6 16 18 45h785l22 -24q-2 -4 -5 -20.5t-7 -26.5q-14 -41 -17 -43h-784z" />
<glyph unicode="&#x2014;" horiz-adv-x="1568" d="M61 479q0 2 4.5 18.5t8.5 26.5q6 16 18 45h1393l22 -24q-2 -4 -5 -20.5t-7 -26.5q-16 -41 -16 -43h-1393z" />
<glyph unicode="&#x2018;" horiz-adv-x="468" d="M92 1118q0 31 14 84q8 35 39 90q23 41 64 86q39 43 86 72l43 -35q-22 -22 -37 -49q-20 -37 -27 -55q-12 -37 -16 -55.5t-4 -47.5q0 -45 27 -78q27 -31 86 -34l16 -45q-10 -14 -39 -29l-63.5 -30.5t-67.5 -22.5q-39 -10 -51 -8q-31 25 -51 63q-19 33 -19 94z" />
<glyph unicode="&#x2019;" horiz-adv-x="468" d="M88 1364q6 8 39 27q18 10 63 30q34 15 68 25q31 8 51 8q29 -29 49 -65q18 -34 19 -93q0 -31 -15 -84q-10 -39 -38 -92q-16 -31 -64 -86q-35 -41 -84 -71l-45 34q22 22 37 50q18 35 27 57q14 41 16 53q4 18 4 47q0 45 -27 78q-29 35 -84 37z" />
<glyph unicode="&#x201a;" horiz-adv-x="468" d="M88 129q6 8 39 27q18 10 63 30q34 15 68 25q31 8 51 8q29 -29 49 -65q18 -34 19 -93q0 -31 -15 -84q-10 -39 -38 -92q-23 -41 -64 -86t-84 -71l-45 34q22 22 37 50q18 33 27 57q14 41 16 53q4 18 4 47q0 45 -27 78q-29 35 -84 37z" />
<glyph unicode="&#x201c;" horiz-adv-x="892" d="M92 1118q0 31 14 84q8 35 39 90q23 41 64 86q39 43 86 72l43 -35q-22 -22 -37 -49q-20 -37 -27 -55q-12 -37 -16 -55.5t-4 -47.5q0 -45 27 -78q27 -31 86 -34l16 -45q-10 -14 -39 -29l-63.5 -30.5t-67.5 -22.5q-39 -10 -51 -8q-31 25 -51 63q-19 33 -19 94zM514 1118 q0 31 14 84q8 35 39 90q23 41 64 86q39 43 86 72l43 -35q-22 -22 -37 -49q-20 -37 -26.5 -55.5t-14.5 -55.5q-6 -27 -6 -47q0 -45 26 -78q27 -31 86 -34l17 -45q-10 -14 -39 -29l-63.5 -30.5t-67.5 -22.5q-39 -10 -51 -8q-20 20 -29 30q-16 20 -23 33q-4 10 -14 43 q-4 14 -4 51z" />
<glyph unicode="&#x201d;" horiz-adv-x="892" d="M88 1364q6 8 39 27q18 10 63 30q34 15 68 25q31 8 51 8q29 -29 49 -65q18 -34 19 -93q0 -31 -15 -84q-10 -39 -38 -92q-16 -31 -64 -86q-35 -41 -84 -71l-45 34q22 22 37 50q18 35 27 57q14 41 16 53q4 18 4 47q0 45 -27 78q-29 35 -84 37zM510 1364q8 10 37 27 q18 10 63 30q31 14 70 25q31 8 51 8q29 -29 49 -65q18 -34 19 -93q0 -39 -13 -84q-8 -31 -41 -92q-16 -31 -63 -86q-35 -41 -84 -71l-43 34q22 22 37 50q18 35 26.5 57t14.5 53q6 27 6 47q0 43 -28.5 78t-84.5 37z" />
<glyph unicode="&#x201e;" horiz-adv-x="919" d="M88 129q6 8 39 27q18 10 63 30q34 15 68 25q31 8 51 8q29 -29 49 -65q18 -34 19 -93q0 -31 -15 -84q-10 -39 -38 -92q-23 -41 -64 -86t-84 -71l-45 34q22 22 37 50q18 33 27 57q14 41 16 53q4 18 4 47q0 45 -27 78q-29 35 -84 37zM510 129q8 10 37 27q18 10 63 30 q31 14 70 25q31 8 51 8q29 -29 49 -65q18 -34 19 -93q0 -37 -13 -84q-8 -31 -41 -92q-23 -41 -63.5 -86t-83.5 -71l-43 34q22 22 37 50q18 33 26 57q8 23 15 53q6 29 6 47q0 43 -28.5 78t-84.5 37z" />
<glyph unicode="&#x2026;" horiz-adv-x="1368" d="M131 72q0 39 10 63q12 33 30.5 53.5t45.5 34.5q25 12 53 13q51 0 74 -29q25 -31 25 -84q0 -29 -11 -64q-8 -31 -28 -53q-18 -23 -45 -35q-25 -12 -54 -12q-57 0 -77 29q-23 33 -23 84zM582 72q0 33 12 63q14 37 29 53q18 20 45 35q25 12 53 13q51 0 74 -29q25 -31 24 -84 q0 -29 -10 -64q-8 -31 -29 -53q-18 -23 -45 -35q-25 -12 -53 -12q-57 0 -78 29q-22 33 -22 84zM1030 72q0 39 10 63q12 33 31 53.5t45 34.5q25 12 53 13q53 0 76 -29q25 -31 25 -84q0 -37 -10 -64q-12 -33 -31 -53q-18 -23 -45 -35q-25 -12 -54 -12q-53 0 -75 29 q-25 31 -25 84z" />
<glyph unicode="&#x202f;" horiz-adv-x="333" />
<glyph unicode="&#x2039;" horiz-adv-x="897" d="M61 530v2v5l5 8q0 4 2 8q2 6 2 12l4 8v7q0 4 4 8v4q0 2 1 2t1 2q2 4 2 8t4 8q2 2 2 6.5t2 6.5l2 4l721 270l25 -25q-2 -14 -7 -24q-4 -12 -8 -26.5t-8 -26.5q-2 -6 -6 -23l-555 -207l567 -209l17 -36l-19 -19q-6 -6 -18 -14l-21 -17q-2 -2 -26 -16l-668 250z" />
<glyph unicode="&#x203a;" horiz-adv-x="897" d="M61 281q2 10 7 22l8 29q2 6 5 14t3 12q2 4 5 11.5t3 9.5l551 207l-565 209l-17 39q12 10 24.5 18t20.5 16q14 10 39 31l670 -250l23 -24l-7 -25l-4 -12v-4q0 -2 -1 -2t-1 -2q-2 -2 -3 -7.5t-1 -7.5q-4 -12 -4 -16l-1 -2l-1 -2l-1 -2q-1 -2 -1 -4q-2 -2 -2 -9q0 -2 -4 -6 l-721 -268z" />
<glyph unicode="&#x205f;" horiz-adv-x="415" />
</font>
</defs>
</svg>
